<svg width="19" height="14" viewBox="0 0 19 14" fill="none" xmlns="http://www.w3.org/2000/svg">
<path d="M17.8969 0.70247C18.216 1.00417 18.4022 1.42027 18.4147 1.85926C18.4271 2.29826 18.2647 2.72422 17.9631 3.04349L8.57693 12.9818C8.4248 13.1426 8.242 13.2713 8.03931 13.3602C7.83662 13.4491 7.61816 13.4965 7.39684 13.4996C7.17552 13.5027 6.95583 13.4614 6.75074 13.3782C6.54565 13.2949 6.35932 13.1714 6.20277 13.0149L1.23362 8.04578C0.941034 7.73178 0.781749 7.31648 0.789321 6.88736C0.796892 6.45825 0.970728 6.04882 1.27421 5.74534C1.57769 5.44186 1.98711 5.26803 2.41623 5.26046C2.84534 5.25288 3.26065 5.41217 3.57464 5.70475L7.34016 9.46806L15.5558 0.768725C15.8575 0.449589 16.2736 0.263332 16.7126 0.250908C17.1516 0.238483 17.5776 0.400908 17.8969 0.70247Z" fill="#00953B"/>
</svg>
