<svg width="29" height="29" viewBox="0 0 29 29" fill="none" xmlns="http://www.w3.org/2000/svg">
<path d="M0.75 22.9674V27.6112C0.75 28.0389 1.08607 28.375 1.51379 28.375H6.1576C6.35618 28.375 6.55477 28.2986 6.69225 28.1459L23.3733 11.4801L17.6449 5.75168L0.979136 22.4175C0.826379 22.5702 0.75 22.7535 0.75 22.9674ZM27.8033 7.05012C27.9449 6.9088 28.0572 6.74093 28.1339 6.55614C28.2105 6.37134 28.25 6.17324 28.25 5.97318C28.25 5.77312 28.2105 5.57502 28.1339 5.39022C28.0572 5.20543 27.9449 5.03757 27.8033 4.89624L24.2288 1.32173C24.0874 1.18012 23.9196 1.06777 23.7348 0.991113C23.55 0.914457 23.3519 0.875 23.1518 0.875C22.9518 0.875 22.7537 0.914457 22.5689 0.991113C22.3841 1.06777 22.2162 1.18012 22.0749 1.32173L19.2794 4.11718L25.0078 9.84557L27.8033 7.05012Z" fill="#01458F"/>
</svg>
