<svg width="21" height="22" viewBox="0 0 21 22" fill="none" xmlns="http://www.w3.org/2000/svg">
<path fill-rule="evenodd" clip-rule="evenodd" d="M8.2005 0.939497C8.64841 0.80513 9.12153 0.777335 9.5821 0.858328C10.0427 0.939321 10.4779 1.12686 10.8531 1.40598C11.2283 1.68509 11.5331 2.04805 11.743 2.46589C11.953 2.88373 12.0624 3.34487 12.0625 3.8125V18.4365C12.0624 18.9041 11.953 19.3653 11.743 19.7831C11.5331 20.2009 11.2283 20.5639 10.8531 20.843C10.4779 21.1221 10.0427 21.3097 9.5821 21.3907C9.12153 21.4717 8.64841 21.4439 8.2005 21.3095L2.2005 19.5095C1.5826 19.3241 1.04091 18.9445 0.655782 18.427C0.270654 17.9095 0.0626058 17.2816 0.0625 16.6365V5.6125C0.0626058 4.96739 0.270654 4.33951 0.655782 3.82198C1.04091 3.30445 1.5826 2.92486 2.2005 2.7395L8.2005 0.939497ZM13.0625 3.1245C13.0625 2.85928 13.1679 2.60493 13.3554 2.41739C13.5429 2.22985 13.7973 2.1245 14.0625 2.1245H17.0625C17.8581 2.1245 18.6212 2.44057 19.1838 3.00318C19.7464 3.56579 20.0625 4.32885 20.0625 5.1245V6.1245C20.0625 6.38971 19.9571 6.64407 19.7696 6.8316C19.5821 7.01914 19.3277 7.1245 19.0625 7.1245C18.7973 7.1245 18.5429 7.01914 18.3554 6.8316C18.1679 6.64407 18.0625 6.38971 18.0625 6.1245V5.1245C18.0625 4.85928 17.9571 4.60493 17.7696 4.41739C17.5821 4.22985 17.3277 4.1245 17.0625 4.1245H14.0625C13.7973 4.1245 13.5429 4.01914 13.3554 3.8316C13.1679 3.64407 13.0625 3.38971 13.0625 3.1245ZM19.0625 15.1245C19.3277 15.1245 19.5821 15.2299 19.7696 15.4174C19.9571 15.6049 20.0625 15.8593 20.0625 16.1245V17.1245C20.0625 17.9201 19.7464 18.6832 19.1838 19.2458C18.6212 19.8084 17.8581 20.1245 17.0625 20.1245H14.0625C13.7973 20.1245 13.5429 20.0191 13.3554 19.8316C13.1679 19.6441 13.0625 19.3897 13.0625 19.1245C13.0625 18.8593 13.1679 18.6049 13.3554 18.4174C13.5429 18.2299 13.7973 18.1245 14.0625 18.1245H17.0625C17.3277 18.1245 17.5821 18.0191 17.7696 17.8316C17.9571 17.6441 18.0625 17.3897 18.0625 17.1245V16.1245C18.0625 15.8593 18.1679 15.6049 18.3554 15.4174C18.5429 15.2299 18.7973 15.1245 19.0625 15.1245ZM7.0625 10.1245C6.79728 10.1245 6.54293 10.2299 6.35539 10.4174C6.16786 10.6049 6.0625 10.8593 6.0625 11.1245C6.0625 11.3897 6.16786 11.6441 6.35539 11.8316C6.54293 12.0191 6.79728 12.1245 7.0625 12.1245H7.0635C7.32872 12.1245 7.58307 12.0191 7.77061 11.8316C7.95814 11.6441 8.0635 11.3897 8.0635 11.1245C8.0635 10.8593 7.95814 10.6049 7.77061 10.4174C7.58307 10.2299 7.32872 10.1245 7.0635 10.1245H7.0625Z" fill="#6E6E6E"/>
<path fill-rule="evenodd" clip-rule="evenodd" d="M16.3554 8.4174C16.7459 8.02688 17.3791 8.02688 17.7696 8.4174L19.7696 10.4174C20.1601 10.8079 20.1601 11.4411 19.7696 11.8316L17.7696 13.8316C17.3791 14.2221 16.7459 14.2221 16.3554 13.8316C15.9649 13.4411 15.9649 12.8079 16.3554 12.4174L16.6483 12.1245H14.0625C13.5102 12.1245 13.0625 11.6768 13.0625 11.1245C13.0625 10.5722 13.5102 10.1245 14.0625 10.1245H16.6483L16.3554 9.83162C15.9649 9.44109 15.9649 8.80793 16.3554 8.4174Z" fill="#6E6E6E"/>
</svg>
