<svg width="54" height="53" viewBox="0 0 54 53" fill="none" xmlns="http://www.w3.org/2000/svg">
<path fill-rule="evenodd" clip-rule="evenodd" d="M7.1665 0.387451H16.4261C16.8026 0.387451 17.1703 0.502291 17.4799 0.716648C17.7895 0.931004 18.0264 1.23468 18.159 1.58717L21.7532 11.1405C21.8717 11.4564 21.9015 11.7987 21.8396 12.1304L20.0375 21.7874C22.2518 26.9911 25.9078 30.489 31.9681 33.6266L41.5091 31.7751C41.8481 31.7098 42.1987 31.7406 42.5212 31.864L52.1041 35.5175C52.4544 35.6509 52.756 35.8876 52.9689 36.1961C53.1818 36.5047 53.296 36.8706 53.2964 37.2455V46.0928C53.2964 50.1066 49.7614 53.3627 45.6241 52.4616C38.0876 50.8225 24.123 46.6531 14.3426 36.8727C4.97195 27.5045 1.83194 14.5644 0.777871 7.57095C0.173075 3.57683 3.37479 0.387451 7.1665 0.387451Z" fill="#01519B"/>
</svg>
