<svg width="19" height="21" viewBox="0 0 19 21" fill="none" xmlns="http://www.w3.org/2000/svg">
<path fill-rule="evenodd" clip-rule="evenodd" d="M3.05353 3.54921C3.05346 2.82225 3.27751 2.11295 3.69517 1.51795C4.11282 0.922954 4.70377 0.471192 5.38749 0.224221C6.0712 -0.0227486 6.81444 -0.0529149 7.51592 0.137833C8.2174 0.328581 8.84301 0.730966 9.30752 1.29016C9.89896 0.570676 10.7505 0.113688 11.677 0.0185146C12.6035 -0.0766587 13.5301 0.197675 14.2555 0.781893C14.9808 1.36611 15.4463 2.213 15.5507 3.13851C15.6552 4.06401 15.3901 4.99333 14.8132 5.72451H15.8334C16.1905 5.72451 16.5441 5.79484 16.874 5.93149C17.2039 6.06814 17.5036 6.26843 17.7561 6.52092C18.0086 6.77341 18.2089 7.07317 18.3456 7.40307C18.4822 7.73296 18.5525 8.08655 18.5525 8.44363V9.80319C18.5525 10.0195 18.4666 10.227 18.3136 10.38C18.1606 10.533 17.9531 10.6189 17.7368 10.6189H10.4495C10.4067 10.6189 10.3643 10.6105 10.3247 10.5941C10.2851 10.5777 10.2491 10.5537 10.2188 10.5234C10.1885 10.4931 10.1645 10.4571 10.1481 10.4175C10.1317 10.3779 10.1233 10.3355 10.1233 10.2926V6.52937C9.81625 6.33188 9.54118 6.08871 9.30752 5.80826C9.07377 6.08832 8.7987 6.33112 8.49178 6.52828V10.2926C8.49178 10.3792 8.4574 10.4622 8.39621 10.5234C8.33502 10.5845 8.25202 10.6189 8.16548 10.6189H0.878237C0.66189 10.6189 0.454404 10.533 0.301424 10.38C0.148443 10.227 0.0625 10.0195 0.0625 9.80319V8.44363C0.0625 8.08655 0.132832 7.73296 0.269481 7.40307C0.40613 7.07317 0.606419 6.77341 0.858913 6.52092C1.11141 6.26843 1.41116 6.06814 1.74106 5.93149C2.07096 5.79484 2.42454 5.72451 2.78162 5.72451H3.80184C3.3161 5.10353 3.05262 4.3376 3.05353 3.54921ZM8.49178 3.54921C8.49178 3.0444 8.29125 2.56027 7.93429 2.20331C7.57734 1.84636 7.0932 1.64582 6.58839 1.64582C6.08358 1.64582 5.59945 1.84636 5.2425 2.20331C4.88554 2.56027 4.68501 3.0444 4.68501 3.54921C4.68501 4.05402 4.88554 4.53815 5.2425 4.89511C5.59945 5.25206 6.08358 5.45259 6.58839 5.45259C7.0932 5.45259 7.57734 5.25206 7.93429 4.89511C8.29125 4.53815 8.49178 4.05402 8.49178 3.54921ZM10.1233 3.54921C10.1233 3.79916 10.1725 4.04667 10.2681 4.2776C10.3638 4.50853 10.504 4.71836 10.6807 4.89511C10.8575 5.07185 11.0673 5.21205 11.2982 5.30771C11.5292 5.40336 11.7767 5.45259 12.0266 5.45259C12.2766 5.45259 12.5241 5.40336 12.755 5.30771C12.986 5.21205 13.1958 5.07185 13.3725 4.89511C13.5493 4.71836 13.6895 4.50853 13.7851 4.2776C13.8808 4.04667 13.93 3.79916 13.93 3.54921C13.93 3.0444 13.7295 2.56027 13.3725 2.20331C13.0156 1.84636 12.5314 1.64582 12.0266 1.64582C11.5218 1.64582 11.0377 1.84636 10.6807 2.20331C10.3238 2.56027 10.1233 3.0444 10.1233 3.54921Z" fill="#6E6E6E"/>
<path d="M8.49197 12.4137C8.49197 12.3272 8.4576 12.2442 8.3964 12.183C8.33521 12.1218 8.25222 12.0874 8.16568 12.0874H2.40005C2.18636 12.087 1.97946 12.1624 1.81615 12.3002C1.65284 12.4381 1.54371 12.6293 1.50818 12.8401C1.2668 14.2495 1.2668 15.6898 1.50818 17.0993L1.75181 18.523C1.83216 18.9894 2.06168 19.4171 2.40588 19.7419C2.75009 20.0667 3.19039 20.271 3.66064 20.3242L4.81898 20.4536C5.93056 20.5776 7.04395 20.6555 8.15915 20.6874C8.20246 20.6883 8.2455 20.6805 8.28577 20.6646C8.32605 20.6487 8.36274 20.6249 8.39372 20.5946C8.4247 20.5643 8.44934 20.5282 8.46621 20.4883C8.48308 20.4484 8.49184 20.4056 8.49197 20.3622V12.4137ZM10.4563 20.6874C10.413 20.6883 10.3699 20.6805 10.3296 20.6646C10.2894 20.6487 10.2527 20.6249 10.2217 20.5946C10.1907 20.5643 10.1661 20.5282 10.1492 20.4883C10.1323 20.4484 10.1236 20.4056 10.1234 20.3622V12.4137C10.1234 12.3272 10.1578 12.2442 10.219 12.183C10.2802 12.1218 10.3632 12.0874 10.4497 12.0874H16.2154C16.657 12.0874 17.0333 12.405 17.1072 12.8401C17.3498 14.2496 17.3498 15.6897 17.1072 17.0993L16.8647 18.523C16.7843 18.9896 16.5546 19.4174 16.2102 19.7422C15.8658 20.067 15.4252 20.2712 14.9548 20.3242L13.7964 20.4536C12.6868 20.5779 11.5724 20.6559 10.4563 20.6874Z" fill="#6E6E6E"/>
</svg>
