<svg width="114" height="114" viewBox="0 0 114 114" fill="none" xmlns="http://www.w3.org/2000/svg">
<path d="M0.75 50.75H50.75V0.75H0.75V50.75ZM13.25 13.25H38.25V38.25H13.25V13.25ZM0.75 113.25H50.75V63.25H0.75V113.25ZM13.25 75.75H38.25V100.75H13.25V75.75ZM63.25 0.75V50.75H113.25V0.75H63.25ZM100.75 38.25H75.75V13.25H100.75V38.25ZM100.75 100.75H113.25V113.25H100.75V100.75ZM63.25 63.25H75.75V75.75H63.25V63.25ZM75.75 75.75H88.25V88.25H75.75V75.75ZM63.25 88.25H75.75V100.75H63.25V88.25ZM75.75 100.75H88.25V113.25H75.75V100.75ZM88.25 88.25H100.75V100.75H88.25V88.25ZM88.25 63.25H100.75V75.75H88.25V63.25ZM100.75 75.75H113.25V88.25H100.75V75.75Z" fill="white"/>
</svg>
