<svg width="62" height="53" viewBox="0 0 62 53" fill="none" xmlns="http://www.w3.org/2000/svg">
<path fill-rule="evenodd" clip-rule="evenodd" d="M55.1549 0.474477C55.9065 0.158116 56.7292 0.0490055 57.5374 0.1585C58.3455 0.267995 59.1095 0.592093 59.7499 1.09706C60.3903 1.60203 60.8836 2.26941 61.1785 3.02973C61.4734 3.79005 61.5592 4.61552 61.4268 5.42023L54.5283 47.2644C53.8591 51.3007 49.4305 53.6154 45.7288 51.6049C42.6323 49.9229 38.0333 47.3313 33.8967 44.6273C31.8283 43.2738 25.4926 38.9394 26.2712 35.8551C26.9404 33.218 37.5862 23.3083 43.6696 17.4166C46.0573 15.1019 44.9683 13.7666 42.1487 15.8957C35.1468 21.1821 23.9048 29.2213 20.1879 31.4843C16.909 33.4796 15.1995 33.8203 13.1555 33.4796C9.42647 32.8591 5.96809 31.8979 3.14542 30.7269C-0.668825 29.1452 -0.483284 23.9014 3.14238 22.3745L55.1549 0.474477Z" fill="#01519B"/>
</svg>
