<svg width="17" height="17" viewBox="0 0 17 17" fill="none" xmlns="http://www.w3.org/2000/svg">
<path fill-rule="evenodd" clip-rule="evenodd" d="M5.33203 4.125C5.33203 3.19674 5.70078 2.3065 6.35716 1.65013C7.01353 0.993749 7.90377 0.625 8.83203 0.625C9.76029 0.625 10.6505 0.993749 11.3069 1.65013C11.9633 2.3065 12.332 3.19674 12.332 4.125C12.332 5.05326 11.9633 5.9435 11.3069 6.59987C10.6505 7.25625 9.76029 7.625 8.83203 7.625C7.90377 7.625 7.01353 7.25625 6.35716 6.59987C5.70078 5.9435 5.33203 5.05326 5.33203 4.125ZM5.33203 9.375C4.17171 9.375 3.05891 9.83594 2.23844 10.6564C1.41797 11.4769 0.957031 12.5897 0.957031 13.75C0.957031 14.4462 1.23359 15.1139 1.72588 15.6062C2.21816 16.0984 2.88584 16.375 3.58203 16.375H14.082C14.7782 16.375 15.4459 16.0984 15.9382 15.6062C16.4305 15.1139 16.707 14.4462 16.707 13.75C16.707 12.5897 16.2461 11.4769 15.4256 10.6564C14.6052 9.83594 13.4924 9.375 12.332 9.375H5.33203Z" fill="#01458F"/>
</svg>
