<svg width="1215" height="166" viewBox="0 0 1215 166" fill="none" xmlns="http://www.w3.org/2000/svg">
<path d="M1214.22 24.0383V165.443H0.219727V24.0367C2.67758 24.5852 4.27966 25.3882 5.85189 25.817C72.7313 43.8874 139.123 63.4836 204.401 86.8095C240.253 99.6243 277.091 107.473 315.472 105.608C350.449 103.912 384.361 96.4131 417.806 86.4704C462.515 73.1869 505.692 55.8146 548.5 37.4451C598.503 15.9841 649.809 10.3196 702.3 26.3855C728.252 34.3237 753.676 44.0569 779.22 53.2816C806.943 63.2941 835.143 71.1325 864.697 72.8279C909.675 75.4108 952.493 66.5052 992.844 46.6598C1015.44 35.5403 1037.34 23.0048 1059.75 11.4764C1090.63 -4.4099 1106.72 -0.0516949 1137.97 5.17695C1169.22 10.4056 1195.22 20.052 1214.22 24.0383Z" fill="#016FB9"/>
</svg>
