<svg width="1200" height="790" viewBox="0 0 1200 790" fill="none" xmlns="http://www.w3.org/2000/svg">
<path fill-rule="evenodd" clip-rule="evenodd" d="M-0.417969 92.9721L39.9112 83.2768C80.2404 73.5816 160.899 54.1911 241.557 34.8006C322.216 15.4101 402.874 -3.98045 483.533 0.867176C564.191 5.7148 644.849 34.8006 725.508 68.7339C806.166 102.667 886.825 141.448 967.483 141.448C1048.14 141.448 1128.8 102.667 1169.13 83.2768L1209.46 63.8863V478.353V494.66C1169.13 494.66 1307.33 790 1209.46 790C1128.8 790 1276.24 790 1195.58 790C1114.92 790 950.24 790 869.582 790C788.924 790 446.24 790 365.582 790C284.924 790 209.911 790 169.582 790H-0.417969V92.9721Z" fill="url(#paint0_linear_155_460)"/>
<defs>
<linearGradient id="paint0_linear_155_460" x1="449.582" y1="0.113779" x2="526.012" y2="400.906" gradientUnits="userSpaceOnUse">
<stop stop-color="#00448E"/>
<stop offset="1" stop-color="#0072BC"/>
</linearGradient>
</defs>
</svg>
