<svg width="1200" height="728" viewBox="0 0 1200 728" fill="none" xmlns="http://www.w3.org/2000/svg">
<path fill-rule="evenodd" clip-rule="evenodd" d="M1318.89 85.5547L1272.34 76.622C1225.79 67.6893 1132.68 49.824 1039.58 31.9586C946.481 14.0932 853.38 -3.7722 760.278 0.694149C667.176 5.16049 574.075 31.9586 480.973 63.223C387.872 94.4874 294.77 130.218 201.668 130.218C108.567 130.218 15.4653 94.4874 -31.0856 76.622L-77.6364 58.7566V440.624V455.649C-31.0856 455.649 -190.612 727.759 -77.6364 727.759C15.4652 727.759 -154.721 727.759 -61.6194 727.759C31.4822 727.759 221.571 727.759 314.673 727.759C407.774 727.759 803.323 727.759 896.425 727.759C989.526 727.759 1076.11 727.759 1122.66 727.759H1318.89V85.5547Z" fill="url(#paint0_linear_155_525)"/>
<defs>
<linearGradient id="paint0_linear_155_525" x1="799.466" y1="8.83023e-06" x2="742.533" y2="374.031" gradientUnits="userSpaceOnUse">
<stop stop-color="#00448E"/>
<stop offset="1" stop-color="#0072BC"/>
</linearGradient>
</defs>
</svg>
