<svg width="2429" height="166" viewBox="0 0 2429 166" fill="none" xmlns="http://www.w3.org/2000/svg">
<path d="M1214.38 24.595V166H0.376953V24.5933C2.83481 25.1418 4.43689 25.9449 6.00912 26.3737C72.8886 44.444 139.28 64.0402 204.558 87.3661C240.411 100.181 277.249 108.029 315.629 106.164C350.606 104.469 384.518 96.9697 417.963 87.027C462.672 73.7435 505.849 56.3713 548.657 38.0017C598.66 16.5407 649.966 10.8763 702.457 26.9421C728.409 34.8803 753.833 44.6136 779.377 53.8382C807.1 63.8507 835.3 71.6892 864.854 73.3845C909.832 75.9674 952.651 67.0619 993.001 47.2164C1015.6 36.097 1037.5 23.5614 1059.91 12.0331C1090.79 -3.85326 1106.88 0.504946 1138.13 5.73359C1169.38 10.9622 1195.38 20.6086 1214.38 24.595Z" fill="#F9F9F9"/>
<path d="M2428.38 24.595V166H1214.38V24.5933C1216.83 25.1418 1218.44 25.9449 1220.01 26.3737C1286.89 44.444 1353.28 64.0402 1418.56 87.3661C1454.41 100.181 1491.25 108.029 1529.63 106.164C1564.61 104.469 1598.52 96.9697 1631.96 87.027C1676.67 73.7435 1719.85 56.3713 1762.66 38.0017C1812.66 16.5407 1863.97 10.8763 1916.46 26.9421C1942.41 34.8803 1967.83 44.6136 1993.38 53.8382C2021.1 63.8507 2049.3 71.6892 2078.85 73.3845C2123.83 75.9674 2166.65 67.0619 2207 47.2164C2229.6 36.097 2251.5 23.5614 2273.91 12.0331C2304.79 -3.85326 2320.88 0.504946 2352.13 5.73359C2383.38 10.9622 2409.38 20.6086 2428.38 24.595Z" fill="#F9F9F9"/>
<path d="M1208.62 23.375L1246 33.625L1244.5 166H1196.5L1208.62 23.375Z" fill="#F9F9F9"/>
</svg>
