<svg width="2429" height="166" viewBox="0 0 2429 166" fill="none" xmlns="http://www.w3.org/2000/svg">
<path d="M1214.22 24.095V165.5H0.21875V24.0933C2.6766 24.6418 4.27868 25.4449 5.85091 25.8737C72.7304 43.944 139.122 63.5402 204.4 86.8661C240.252 99.6809 277.09 107.529 315.471 105.664C350.448 103.969 384.36 96.4697 417.805 86.527C462.514 73.2435 505.691 55.8713 548.499 37.5017C598.502 16.0407 649.808 10.3763 702.299 26.4421C728.251 34.3803 753.675 44.1136 779.219 53.3382C806.942 63.3507 835.142 71.1892 864.696 72.8845C909.674 75.4674 952.492 66.5619 992.843 46.7164C1015.44 35.597 1037.34 23.0614 1059.75 11.5331C1090.63 -4.35326 1106.72 0.00494576 1137.97 5.23359C1169.22 10.4622 1195.22 20.1086 1214.22 24.095Z" fill="#016FB9"/>
<path d="M2428.22 24.095V165.5H1214.22V24.0933C1216.68 24.6418 1218.28 25.4449 1219.85 25.8737C1286.73 43.944 1353.12 63.5402 1418.4 86.8661C1454.25 99.6809 1491.09 107.529 1529.47 105.664C1564.45 103.969 1598.36 96.4697 1631.8 86.527C1676.51 73.2435 1719.69 55.8713 1762.5 37.5017C1812.5 16.0407 1863.81 10.3763 1916.3 26.4421C1942.25 34.3803 1967.67 44.1136 1993.22 53.3382C2020.94 63.3507 2049.14 71.1892 2078.7 72.8845C2123.67 75.4674 2166.49 66.5619 2206.84 46.7164C2229.44 35.597 2251.34 23.0614 2273.75 11.5331C2304.63 -4.35326 2320.72 0.00494576 2351.97 5.23359C2383.22 10.4622 2409.22 20.1086 2428.22 24.095Z" fill="#016FB9"/>
<path d="M1184.75 16.75L1259.75 37L1258 165.5H1168L1184.75 16.75Z" fill="#016FB9"/>
</svg>
