<svg width="1215" height="166" viewBox="0 0 1215 166" fill="none" xmlns="http://www.w3.org/2000/svg">
<path d="M1214.22 24.0901V165.495H0.219727V24.0884C2.67758 24.6369 4.27966 25.44 5.85189 25.8688C72.7313 43.9391 139.123 63.5353 204.401 86.8612C240.253 99.676 277.091 107.524 315.472 105.66C350.449 103.964 384.361 96.4648 417.806 86.5222C462.515 73.2387 505.692 55.8664 548.5 37.4968C598.503 16.0358 649.809 10.3714 702.3 26.4372C728.252 34.3754 753.676 44.1087 779.22 53.3333C806.943 63.3458 835.143 71.1843 864.697 72.8796C909.675 75.4625 952.493 66.557 992.844 46.7115C1015.44 35.5921 1037.34 23.0565 1059.75 11.5282C1090.63 -4.35814 1106.72 6.29425e-05 1137.97 5.22871C1169.22 10.4574 1195.22 20.1037 1214.22 24.0901Z" fill="#F9F9F9"/>
</svg>
