<svg width="244" height="262" viewBox="0 0 244 262" fill="none" xmlns="http://www.w3.org/2000/svg">
<path d="M10.8175 126.898C11.0389 126.593 11.3082 125.282 11.4878 123.948C11.8409 121.279 11.8529 118.49 10.3926 123.744C10.3926 126.497 10.5961 127.192 10.8175 126.898Z" fill="#FFD300"/>
<path d="M71.5986 259.055C70.0486 258.444 68.1095 257.642 66.1226 256.517C65.1231 255.967 64.0638 255.398 63.0344 254.734C62.005 254.063 60.9756 253.345 59.9702 252.603C54.6736 248.719 49.6344 244.44 44.9902 239.879C54.3564 249.479 65.566 257.343 75.7701 261.718C75.0459 261.329 74.3517 260.874 73.6574 260.425C72.9572 259.988 72.2989 259.474 71.5927 259.055H71.5986Z" fill="#FFD300"/>
<path d="M242.089 116.06C240.791 106.005 238.486 96.1483 235.177 86.6205C235.626 87.3686 236.069 88.0988 236.517 88.793C236.266 88.0449 236.015 87.3028 235.757 86.5607C235.5 85.8245 235.261 85.0764 234.955 84.3523C234.369 82.9039 233.788 81.4556 233.202 80.0133C231.909 77.1825 230.622 74.3517 229.078 71.6406L227.959 69.5878C227.576 68.9115 227.151 68.2532 226.744 67.5888C226.331 66.9245 225.924 66.2602 225.505 65.5899L224.883 64.5905C224.668 64.2613 224.44 63.9381 224.213 63.6209C223.309 62.3282 222.405 61.0355 221.484 59.7428C220.496 58.4919 219.509 57.2351 218.515 55.9723C218.162 55.5115 217.779 55.0686 217.396 54.6377C217.013 54.2008 216.63 53.764 216.241 53.3211C211.854 48.3537 207.258 43.9189 202.428 39.951C197.58 36.007 192.541 32.494 187.268 29.3579L185.276 28.2029C184.611 27.8198 183.953 27.4248 183.265 27.0837C181.906 26.3715 180.542 25.6653 179.171 24.9471C177.771 24.2948 176.364 23.6424 174.958 22.9901C174.263 22.649 173.533 22.3677 172.809 22.0684C172.091 21.7752 171.367 21.4759 170.643 21.1767C164.814 18.8546 158.679 16.9155 152.162 15.4732L149.75 14.9824C148.942 14.8328 148.14 14.6533 147.326 14.5515C145.698 14.3241 144.076 14.0907 142.454 13.8872L137.565 13.4503C135.931 13.3366 134.297 13.2887 132.663 13.181C131.436 13.169 131.023 13.3426 130.963 13.5341C130.91 13.7316 131.209 13.971 131.4 14.2164C131.789 14.7011 131.765 15.1739 127.756 15.2757C128.187 15.3535 128.611 15.4552 128.977 15.563C129.737 15.5211 130.491 15.4852 131.227 15.4433C131.963 15.4133 132.681 15.4313 133.375 15.4193C134.77 15.4193 136.074 15.3954 137.236 15.4433C139.558 15.5989 141.329 15.8083 142.143 16.1914C142.909 16.7061 141.79 16.9335 139.719 17.0472C124.554 15.3774 108.802 16.8437 93.361 21.9068C86.3647 24.205 79.7515 27.1376 73.5692 30.6207C74.5088 29.6272 75.4484 28.6697 76.3043 27.7181C70.6726 30.6746 65.3341 34.5168 61.0969 38.1197C61.6175 37.599 61.4141 37.4673 61.3243 37.3416C60.4565 38.0119 59.6246 38.6523 58.8167 39.2747C58.0446 39.945 57.2906 40.6034 56.5544 41.2437C55.8243 41.8961 55.0821 42.5065 54.4059 43.1708C53.7296 43.8352 53.0533 44.4935 52.377 45.1578C51.0005 46.4505 49.7318 47.8689 48.3612 49.3113C48.0201 49.6703 47.673 50.0354 47.3258 50.4065C46.9787 50.7775 46.6556 51.1785 46.3025 51.5735C45.6082 52.3575 44.8841 53.1715 44.136 54.0153C47.7508 48.6948 52.6344 43.3683 58.4396 38.5566C64.2389 33.7328 70.9419 29.4297 78.0159 25.8748C78.6084 25.2284 79.1351 24.606 79.5839 24.0255C72.0371 27.4428 64.8434 31.7758 58.2481 36.8988C51.6349 42.0038 45.68 47.9647 40.4852 54.4821C35.2904 61.0056 30.8736 68.1035 27.3306 75.5426C23.8116 82.9997 21.2022 90.8099 19.4846 98.7098C18.3834 104.467 17.6113 110.35 17.4138 116.323C17.6173 114.863 17.8028 113.408 18.0243 111.942C18.3056 110.494 18.5928 109.034 18.8741 107.573L18.138 112.301L17.6233 117.053C17.4916 118.573 17.4258 120.082 17.3181 121.62C17.2821 122.864 17.3659 124.115 17.4138 125.366C17.4377 125.995 17.4677 126.623 17.4856 127.251L17.5036 127.67C17.5215 129.25 17.5694 130.83 17.6532 132.416C17.4617 130.363 17.2163 128.305 17.1804 126.222C17.0906 128.478 17.2343 130.74 17.2821 133.021C17.2821 133.589 17.336 134.158 17.3779 134.726L17.5156 136.432L17.6532 138.144C17.7011 138.712 17.737 139.287 17.8208 139.855C17.9644 140.992 18.114 142.13 18.2637 143.267C18.3415 143.835 18.4013 144.41 18.503 144.972L18.8143 146.672L19.4427 150.065C19.694 151.185 19.9753 152.304 20.2446 153.423C20.7414 155.667 21.4595 157.852 22.1238 160.042C22.4351 161.143 22.86 162.209 23.249 163.28C23.65 164.351 24.051 165.416 24.446 166.476C24.9068 167.511 25.3616 168.552 25.8165 169.582C26.2773 170.611 26.7142 171.647 27.2528 172.634C28.2882 174.609 29.2697 176.59 30.4487 178.439C31.9988 181.354 33.6685 184.179 35.452 186.908C35.2844 186.8 34.9732 186.411 34.6321 185.95C34.0576 185.13 33.3812 184.143 33.1478 184.286C33.1239 184.257 33.106 184.227 33.082 184.203C31.5559 181.791 30.2512 179.259 28.8927 176.788C27.6658 174.214 26.3611 171.688 25.3138 169.055C24.1467 166.476 23.261 163.795 22.2735 161.155C21.4535 158.462 20.5439 155.805 19.9155 153.064C19.1614 150.359 18.6826 147.588 18.132 144.835C17.737 142.058 17.2642 139.281 17.0787 136.468C16.7734 133.667 16.7495 130.842 16.6717 128.017C16.7016 126.605 16.7375 125.187 16.7675 123.774C16.7794 123.421 16.7794 123.062 16.7974 122.715L16.8752 121.656L17.0547 119.537C17.1624 112.624 17.9465 105.64 19.4427 98.7218C19.9095 96.0226 20.6157 93.3893 21.2441 90.7201C22.0101 88.1047 22.7163 85.4535 23.644 82.868C25.8344 76.7037 28.7969 70.5034 32.4835 64.5246C36.1702 58.5458 40.575 52.8004 45.5663 47.5098C50.5576 42.2133 56.1235 37.3776 62.0545 33.1224C67.9914 28.8732 74.2814 25.1865 80.7151 22.1403C80.9245 21.5897 80.9844 21.1288 80.8168 20.7518C80.6552 20.3747 80.2662 20.0755 79.6138 19.9139C72.3184 22.9422 65.376 26.8682 58.9663 31.5065C52.5506 36.1507 46.6675 41.5131 41.4069 47.4081C30.8677 59.2101 22.872 73.0769 17.4258 87.8474C17.3719 88.0868 17.3121 88.3322 17.2582 88.5716C15.8398 95.1967 13.8289 103.749 13.0389 112.894C12.9432 114.037 12.8534 115.18 12.7576 116.329C12.7038 116.904 12.6858 117.478 12.6619 118.059L12.608 119.794C12.5841 120.949 12.5123 122.104 12.5362 123.259C12.5661 124.409 12.5901 125.558 12.62 126.701C12.638 127.269 12.6559 127.838 12.6739 128.406C12.7217 128.975 12.7696 129.532 12.8115 130.094C12.9132 131.213 13.015 132.326 13.1107 133.416C13.2125 134.511 13.416 135.582 13.5716 136.641C13.7392 137.701 13.9067 138.736 14.0923 139.748C15.8757 147.833 18.2637 155.685 21.3877 163.172C24.4759 170.599 28.3241 177.667 33.0042 184.083C30.0477 180.366 27.4802 176.345 25.0803 172.401C24.5118 171.371 23.9612 170.36 23.4046 169.354C22.86 168.349 22.2854 167.361 21.8246 166.35C21.3458 165.345 20.867 164.351 20.4062 163.388C20.1788 162.897 19.9454 162.418 19.724 161.939C19.5205 161.448 19.323 160.97 19.1255 160.497L18.2397 158.199C17.9584 157.427 17.6412 156.667 17.4198 155.877C16.941 154.309 16.4742 152.735 16.0194 151.161C15.6244 149.569 15.2832 147.983 14.9182 146.397C14.8284 146.002 14.7326 145.607 14.6548 145.212L14.4513 144.021C14.3137 143.225 14.176 142.435 14.0384 141.645C13.009 135.313 12.4105 129.131 11.7642 123.259C11.6205 122.416 11.6325 121.368 11.6325 120.189C11.6445 119.597 11.6564 118.974 11.6804 118.328C11.7103 117.682 11.7163 117.011 11.8001 116.335C11.9317 114.976 12.0694 113.57 12.2011 112.182C12.2549 111.487 12.3447 110.805 12.4345 110.141C12.5182 109.47 12.5961 108.824 12.6559 108.196C12.6739 107.663 12.6978 107.118 12.7217 106.562C12.7337 106.281 12.7517 105.999 12.7636 105.718C12.7935 105.437 12.8175 105.155 12.8474 104.874C12.9671 103.731 13.0928 102.564 13.2185 101.379C12.9192 102.588 12.62 103.803 12.3148 105.018C12.0155 106.233 11.8001 107.466 11.5367 108.692C11.4709 108.896 11.5008 108.381 11.5966 107.322C11.6504 106.795 11.7043 106.131 11.8001 105.353C11.9198 104.581 12.0574 103.695 12.207 102.726C12.3686 101.756 12.5183 100.685 12.7277 99.5537C12.9611 98.4345 13.2125 97.2375 13.4698 96.0047C13.6075 95.3882 13.7272 94.7538 13.8768 94.1195C14.0384 93.4911 14.206 92.8507 14.3735 92.2103C14.7147 90.9236 15.0259 89.595 15.4089 88.2962C16.2109 85.7048 16.9709 83.0895 17.8687 80.7075C18.0781 80.109 18.2876 79.5225 18.4911 78.948C18.6946 78.3735 18.8861 77.8049 19.1135 77.2722C19.5444 76.195 19.9394 75.1836 20.3104 74.2499C21.0047 72.3707 21.6989 70.8865 22.07 69.8631C22.453 68.8456 22.5787 68.313 22.3573 68.4327C22.3273 68.4207 22.0401 68.9294 21.5373 69.881C21.0406 70.8386 20.2925 72.2211 19.5145 74.0225C19.1135 74.9202 18.6706 75.9077 18.1918 76.973C17.7131 78.0383 17.2881 79.2233 16.7914 80.4562C16.3126 81.695 15.774 82.9937 15.3311 84.4001C14.8703 85.7946 14.3556 87.2369 13.8888 88.7451C12.0215 94.8017 10.4535 101.804 9.51388 108.962C8.5623 116.12 8.27503 123.427 8.4845 130.04C8.17329 132.626 7.11996 131.572 6.09058 129.358C5.95891 129.083 5.83322 128.789 5.70754 128.478C5.59383 128.167 5.48611 127.85 5.37838 127.521C5.16293 126.868 4.96543 126.18 4.79786 125.504C4.46869 124.151 4.19339 122.847 4.18142 121.949C4.12756 121.554 4.08566 121.093 4.04376 120.656L3.93604 122.188C3.90612 122.703 3.90612 123.212 3.88218 123.726C3.85824 124.75 3.82832 125.773 3.81037 126.796L3.78043 128.329C3.78043 128.837 3.7984 129.346 3.81037 129.855C3.83431 130.818 3.85823 131.776 3.88815 132.733C3.22384 125.623 3.13407 118.484 3.68467 111.416C3.6727 113.013 3.66672 114.576 3.68467 116.054C3.75649 117.688 3.88817 119.226 4.0318 120.626C4.12756 119.333 4.21733 118.047 4.31309 116.754C4.43278 115.461 4.60633 114.181 4.74997 112.9C5.00731 110.326 5.48611 107.789 5.8811 105.257C6.22822 101.247 6.62322 98.0096 7.11996 95.472C7.35337 94.2032 7.53889 93.0841 7.76631 92.1265C7.99972 91.1749 8.2032 90.373 8.39471 89.7027C8.40668 88.41 8.39472 86.6863 8.63412 84.3942C8.47253 84.843 8.29896 85.3218 8.13737 85.7647C5.89307 93.8023 4.38489 102.133 3.72058 110.584C3.72058 110.518 3.72058 110.458 3.72058 110.386C2.51764 119.591 2.17052 129.119 2.93657 138.359C0.710227 122.296 1.62591 105.957 5.19285 90.6064C4.77392 91.8752 4.47467 93.2038 4.11558 94.5384C3.94202 95.2087 3.76846 95.879 3.5949 96.5553C3.51112 96.8904 3.42135 97.2256 3.33756 97.5727C3.25976 97.9138 3.19393 98.255 3.11613 98.6021C2.83484 99.9786 2.54756 101.373 2.26628 102.768L2.0628 103.815L1.90121 104.874L1.57803 106.993C1.09925 109.806 0.877811 112.654 0.608495 115.443C0.488799 116.838 0.464856 118.226 0.399023 119.591C0.351144 120.955 0.279324 122.296 0.321218 123.619C0.351142 124.953 0.381068 126.276 0.416977 127.598L0.446893 128.592L0.518726 129.579C0.572589 130.232 0.614477 130.896 0.662356 131.548C0.710234 132.201 0.758107 132.859 0.805985 133.511C0.859848 134.164 0.895768 134.816 0.98554 135.468C1.14713 136.767 1.30871 138.06 1.46432 139.347C1.55409 139.987 1.61992 140.633 1.72166 141.274L2.05083 143.183C2.27227 144.452 2.49969 145.72 2.72113 146.989C2.97249 148.246 3.27771 149.497 3.559 150.736L3.9899 152.603L4.20535 153.531L4.46271 154.446C7.08405 164.261 10.7946 173.544 15.4568 182.21C16.0014 183.311 16.6537 184.358 17.2642 185.418C17.8866 186.471 18.5031 187.524 19.1255 188.578C19.7838 189.613 20.4601 190.624 21.1244 191.642L22.1298 193.168L22.6326 193.928L23.1712 194.664L25.3197 197.603C25.6848 198.081 26.0319 198.584 26.403 199.057L27.5461 200.469L29.8263 203.276C30.5983 204.204 31.4242 205.084 32.2202 205.981L33.4291 207.322C33.8301 207.771 34.2311 208.22 34.656 208.639L37.1876 211.2L38.4564 212.469L39.779 213.684L42.4243 216.108C43.31 216.91 44.2497 217.652 45.1653 218.424C46.093 219.184 46.9847 219.974 47.9363 220.686L50.7911 222.835L52.2214 223.906L53.6997 224.911L56.7459 226.587C57.7454 227.15 58.7927 227.646 59.8042 228.191L62.8265 229.813C63.8499 230.334 64.8613 230.86 65.8608 231.405C66.4413 231.716 67.0278 232.033 67.6203 232.344C68.2248 232.638 68.8292 232.931 69.4457 233.23C70.6726 233.823 71.9054 234.451 73.1623 235.05C75.7178 236.169 78.2793 237.39 80.9425 238.395C83.5578 239.496 86.263 240.37 88.8903 241.28C90.2189 241.699 91.5475 242.064 92.8462 242.447C93.4986 242.632 94.145 242.818 94.7853 242.997C95.4377 243.153 96.078 243.303 96.7184 243.452C95.1803 242.483 100.231 243.793 100.291 243.524C101.584 243.686 102.913 243.823 104.247 244.003C104.912 244.099 105.582 244.188 106.264 244.284C106.946 244.356 107.629 244.428 108.323 244.506C109.699 244.649 111.094 244.847 112.506 244.99C113.919 245.116 115.355 245.242 116.797 245.373C117.157 245.403 117.516 245.445 117.881 245.475L118.976 245.529C119.712 245.571 120.442 245.607 121.178 245.649C121.914 245.691 122.657 245.732 123.393 245.774C124.129 245.81 124.877 245.804 125.625 245.816C127.115 245.828 128.617 245.876 130.12 245.846C131.622 245.792 133.124 245.726 134.632 245.673C135.494 245.649 135.925 245.661 136.362 245.726C136.799 245.78 137.247 245.87 138.121 245.9C138.121 245.9 138.121 245.9 138.115 245.9C122.908 247.773 107.748 246.678 93.4507 243.045C86.3048 241.226 79.3505 238.79 72.7014 235.744C66.0523 232.698 59.6904 229.065 53.6877 224.899C53.0593 224.552 52.4189 224.229 51.7965 223.864C51.1801 223.499 50.5636 223.134 49.9472 222.769C51.8144 224.379 53.8253 225.803 55.7943 227.269L56.5365 227.814L57.2965 228.329L58.8286 229.346C59.858 230.016 60.8635 230.711 61.9048 231.345C62.9582 231.967 64.0115 232.584 65.0588 233.2L66.6388 234.116L68.2547 234.96C69.332 235.51 70.4092 236.061 71.4865 236.618C72.5638 237.156 73.6769 237.623 74.7722 238.12C79.1411 240.107 83.6476 241.645 88.1123 242.967C89.2314 243.297 90.3685 243.554 91.4817 243.835C92.6069 244.105 93.714 244.404 94.8392 244.613C95.9583 244.817 97.0835 245.026 98.1966 245.23C98.7532 245.325 99.3098 245.427 99.8604 245.517C100.417 245.607 100.974 245.661 101.53 245.738C105.025 246.241 110.34 246.331 113.793 246.684C122.01 247.504 130.102 247.312 137.942 246.283C145.788 245.254 153.377 243.398 160.66 240.885C153.646 243.141 146.338 244.817 138.738 245.81C138.54 245.84 138.355 245.858 138.169 245.888C146.207 243.895 155.358 241.651 164.76 238.305C165.927 237.868 167.106 237.42 168.291 236.977C168.877 236.755 169.476 236.534 170.074 236.312C170.661 236.067 171.247 235.81 171.84 235.564C173.019 235.068 174.204 234.571 175.395 234.068C176.568 233.535 177.735 232.967 178.908 232.41L180.667 231.572C181.254 231.291 181.822 230.962 182.403 230.663C183.558 230.052 184.713 229.436 185.868 228.819C187.011 228.179 188.124 227.485 189.255 226.82L190.937 225.809C191.272 225.606 191.601 225.384 191.925 225.169C182.116 231.782 171.714 237.078 160.684 240.885C174.575 236.45 187.221 229.609 198.292 220.997C209.352 212.361 218.898 201.93 226.427 189.924C230.006 184.191 232.998 178.224 235.41 172.131C235.997 170.599 236.625 169.091 237.11 167.535C237.367 166.763 237.625 165.991 237.882 165.219C238.139 164.447 238.403 163.687 238.606 162.903C239.037 161.341 239.468 159.791 239.893 158.235C240.246 156.667 240.587 155.105 240.94 153.543C242.191 147.27 242.897 140.963 243.095 134.684C243.316 128.406 242.927 122.152 242.071 116L242.089 116.06ZM23.3268 91.3246C23.3268 91.3246 23.3088 91.3664 23.3029 91.3904C23.3507 91.2288 23.3926 91.0732 23.4405 90.9116C23.3986 91.0493 23.3627 91.1869 23.3208 91.3246H23.3268ZM4.46271 137.767L4.78587 140.173C4.88163 140.974 5.0552 141.764 5.19285 142.566C5.49209 144.158 5.74944 145.762 6.09058 147.342C6.45565 148.916 6.8267 150.496 7.19178 152.07C7.32943 152.705 7.50897 153.333 7.6945 153.961L8.23313 155.841L8.77775 157.72C8.95729 158.348 9.13084 158.977 9.35228 159.587C9.77122 160.82 10.1961 162.053 10.6151 163.292C10.8365 163.908 11.034 164.531 11.2674 165.141L11.9916 166.96C12.4763 168.169 12.9611 169.384 13.4459 170.599C13.9725 171.796 14.5232 172.981 15.0678 174.172C16.1031 176.572 17.3839 178.864 18.5809 181.192C17.8687 179.983 17.1624 178.769 16.4562 177.548L15.9236 176.632C15.75 176.327 15.5944 176.01 15.4269 175.704L14.4394 173.837C14.1102 173.251 13.781 172.646 13.4519 172.03C13.2903 171.718 13.1227 171.413 12.9611 171.102C12.7995 170.791 12.6619 170.468 12.5123 170.15C11.9257 168.864 11.3332 167.541 10.7527 166.188C10.6091 165.847 10.4655 165.506 10.3158 165.165C10.1902 164.812 10.0585 164.465 9.93281 164.112C9.68743 163.4 9.43009 162.693 9.17274 161.969C8.10745 159.102 7.34139 156.038 6.52745 152.908C5.10307 146.696 4.2293 140.047 3.93604 133.248C4.04975 134.762 4.27118 136.27 4.46868 137.779L4.46271 137.767ZM17.5156 182.928C16.7734 181.719 16.0613 180.48 15.3251 179.247C12.1173 173.987 9.22661 167.733 7.15587 160.778C5.03725 153.842 3.5949 146.247 2.95453 138.425C5.27663 155.296 11.0041 171.76 19.8436 186.507C19.0656 185.31 18.2936 184.119 17.5156 182.928ZM97.1972 234.702C95.8805 234.433 94.5699 234.17 93.2652 233.9C92.6128 233.763 91.9485 233.655 91.3082 233.482L89.3751 232.997L87.436 232.512L86.4665 232.267L85.5089 231.979C84.2222 231.584 82.9354 231.183 81.6307 230.782C80.332 230.352 79.0513 229.849 77.7346 229.364C77.0823 229.113 76.412 228.885 75.7596 228.598C75.1073 228.311 74.449 228.023 73.7906 227.73C69.4337 225.965 65.1426 223.631 60.8575 221.033C58.7748 219.657 56.6143 218.316 54.5854 216.748C54.0767 216.365 53.556 215.982 53.0414 215.599C52.5267 215.216 52.006 214.839 51.5152 214.414C50.5217 213.588 49.5223 212.756 48.5228 211.924C44.6087 208.495 40.7965 204.82 37.3731 200.769L36.0625 199.266C35.6316 198.764 35.2366 198.231 34.8176 197.716L32.3579 194.586C31.5858 193.509 30.8198 192.426 30.0537 191.349C29.6767 190.804 29.2877 190.271 28.9106 189.721L27.8453 188.045C26.786 186.513 25.6788 185.011 24.7272 183.449C22.6026 180.067 21.1723 176.901 19.9334 173.813C19.7299 173.352 19.5205 172.891 19.317 172.437C19.4486 172.688 19.5863 172.957 19.718 173.215C19.293 172.042 18.8861 170.875 18.4851 169.702L18.1859 168.816C18.0961 168.517 18.0123 168.217 17.9225 167.912C17.749 167.308 17.5754 166.703 17.4018 166.087C17.2223 165.476 17.0428 164.854 16.8572 164.219C16.6717 163.591 16.4802 162.951 16.3306 162.286C16.0014 160.964 15.6543 159.605 15.2713 158.175C15.0199 157.666 14.7745 157.157 14.5591 156.631L15.355 156.421C18.2218 163.441 21.1842 171.168 25.0265 178.774C28.8747 186.351 33.6147 193.766 39.2344 199.889C41.0179 201.906 42.9809 203.791 44.908 205.73C45.9015 206.67 46.9249 207.579 47.9303 208.507C48.439 208.968 48.9357 209.441 49.4564 209.883L51.0424 211.2L52.6344 212.523L53.4303 213.181L54.2503 213.81C55.3515 214.641 56.4587 215.473 57.5599 216.305C58.679 217.113 59.8341 217.873 60.9772 218.657C61.5517 219.04 62.1083 219.447 62.7008 219.806L64.4723 220.884L66.2378 221.961C66.5371 222.14 66.8243 222.32 67.1236 222.493L68.0333 222.99C69.2422 223.643 70.4571 224.295 71.6661 224.947C74.1497 226.132 76.5915 227.365 79.1351 228.341C81.6307 229.418 84.2102 230.25 86.7478 231.106C88.0345 231.483 89.3212 231.836 90.6019 232.189C91.2483 232.356 91.8707 232.56 92.5231 232.692C93.1694 232.829 93.8158 232.967 94.4561 233.111C95.2402 233.29 96.114 233.523 97.0296 233.793C97.9573 234.038 98.9208 234.296 99.8963 234.559C100.866 234.822 101.829 235.115 102.751 235.349C103.679 235.564 104.559 235.768 105.348 235.929C102.536 235.612 99.8604 235.109 97.1912 234.691L97.1972 234.702ZM202.362 217.616C201.853 218.041 201.339 218.466 200.824 218.897C200.303 219.316 199.753 219.711 199.22 220.118C198.143 220.919 197.054 221.727 195.97 222.535C194.893 223.26 193.804 223.984 192.721 224.714C193.768 223.984 194.815 223.26 195.869 222.529C196.928 221.727 197.993 220.925 199.065 220.118C199.603 219.717 200.136 219.316 200.674 218.909C201.195 218.484 201.71 218.059 202.236 217.628C203.272 216.76 204.349 215.928 205.384 215.048C204.415 215.934 203.38 216.766 202.362 217.622V217.616ZM229.773 176.237C229.689 176.59 229.593 176.961 229.485 177.356C229.384 177.751 229.258 178.17 229.102 178.595C228.803 179.457 228.456 180.39 228.067 181.39C227.863 181.893 227.66 182.407 227.45 182.94C227.229 183.467 226.972 183.987 226.714 184.532C226.2 185.615 225.649 186.746 225.068 187.913C222.621 192.498 219.461 197.429 216.133 201.66C212.782 205.868 209.406 209.482 206.923 211.733C200.74 217.341 193.529 222.87 185.671 227.682C177.795 232.458 169.29 236.474 160.881 239.55C159.248 239.221 159.295 238.581 160.594 237.719C161.247 237.288 162.21 236.797 163.437 236.259C164.652 235.678 166.124 235.002 167.824 234.284C168.249 234.104 168.692 233.918 169.141 233.733C169.583 233.529 170.038 233.314 170.505 233.099C171.445 232.674 172.426 232.225 173.456 231.758C174.491 231.321 175.532 230.753 176.622 230.22C177.705 229.675 178.842 229.143 179.985 228.532C184.545 226.096 189.459 223.14 194.313 219.699C199.13 216.215 203.84 212.206 208.09 207.938C209.131 206.849 210.196 205.796 211.19 204.695C212.159 203.576 213.123 202.462 214.074 201.373C215.008 200.272 215.858 199.117 216.72 198.01C217.145 197.447 217.587 196.908 217.976 196.346C218.365 195.783 218.755 195.221 219.138 194.664C219.515 194.108 219.892 193.557 220.257 193.012C220.628 192.468 220.993 191.935 221.31 191.378C221.968 190.277 222.603 189.212 223.201 188.171C223.351 187.913 223.5 187.656 223.644 187.399C223.782 187.135 223.913 186.878 224.045 186.621C224.302 186.1 224.56 185.591 224.805 185.094C225.296 184.101 225.769 183.143 226.176 182.222C226.942 180.343 227.582 178.643 228.043 177.147C228.456 175.626 228.713 174.316 228.803 173.268C230.239 172.161 230.431 173.436 229.773 176.249V176.237Z" fill="#FFD300"/>
<path d="M19.0285 156.894C19.0703 157.995 19.1182 159.109 19.1601 160.216C19.1721 159.444 19.19 158.678 19.196 157.918C19.208 157.535 19.208 157.158 19.22 156.774L19.2918 155.631C19.2918 154.74 19.3038 153.854 19.3097 152.974C19.3097 152.537 19.3097 152.094 19.3097 151.657C19.3097 151.221 19.3516 150.784 19.3696 150.341C19.208 151.406 19.1421 152.483 19.0524 153.543C19.0404 154.662 19.0284 155.775 19.0225 156.894H19.0285Z" fill="#FFD300"/>
<path d="M21.709 207.22C21.7808 207.418 21.8526 207.615 21.9304 207.819C24.2765 212.636 26.8081 217.472 29.8483 222.051C34.2292 228.233 39.3103 234.278 45.0078 239.879C39.9387 234.708 35.4022 229.071 31.5061 223.463C27.628 217.831 24.4381 212.235 21.715 207.22H21.709Z" fill="#FFD300"/>
<path d="M45.9298 251.957C45.2116 251.424 44.4695 250.91 43.7812 250.335C44.4037 250.987 45.4211 251.855 46.4146 252.759C47.414 253.651 48.4075 254.566 49.0958 255.141C50.0473 255.703 50.981 256.254 51.9266 256.816C50.6518 255.739 49.3172 254.704 48.1023 253.537L45.9298 251.957Z" fill="#FFD300"/>
<path d="M36.8471 196.49C46.6972 209.818 33.4203 229.673 18.9552 225.42C9.10514 222.527 4.09398 209.336 11.8087 197.816C19.6956 186.054 31.9566 189.877 36.8471 196.49Z" fill="#FCECDE"/>
<path d="M16.0963 202.672C15.7175 202.672 15.3386 202.569 14.9942 202.345C14.0815 201.742 13.8405 200.502 14.4604 199.59C17.2156 195.491 20.5908 193.407 24.5342 193.407C29.0287 193.407 32.6105 196.077 34.2981 198.384C34.9525 199.262 34.7631 200.502 33.8849 201.157C33.0066 201.811 31.7668 201.622 31.1124 200.743C29.9242 199.125 27.3412 197.385 24.5342 197.385C21.9684 197.385 19.747 198.832 17.7494 201.811C17.3706 202.379 16.7335 202.689 16.0963 202.689V202.672Z" fill="white"/>
<path d="M134.339 10.6224C121.769 -4.99056 96.8562 -2.70341 107.025 15.4236C110.863 22.2472 119.765 26.6891 126.135 27.672C135.586 29.1464 142.183 20.3758 134.32 10.6224H134.339Z" fill="#FCECDE"/>
<path d="M129.917 16.3496C129.274 16.3496 128.65 16.0661 128.215 15.5369C124.057 10.3766 118.216 8.0706 114.266 8.0706C113.434 8.0706 112.867 8.16511 112.508 8.27852C112.621 8.90228 112.962 9.99858 113.85 11.5674C114.436 12.607 114.058 13.9302 113.018 14.5351C111.979 15.121 110.655 14.7619 110.051 13.7034C108.179 10.3577 107.631 7.52244 108.557 5.91578C109.37 4.53593 111.487 3.72314 114.247 3.72314C119.237 3.72314 126.514 6.53953 131.58 12.815C132.336 13.7412 132.185 15.121 131.259 15.8771C130.862 16.1984 130.37 16.3496 129.898 16.3496H129.917Z" fill="white"/>
<path d="M175.77 225.498C175.86 223.668 174.55 221.858 172.78 221.368C171.01 220.878 168.96 221.738 168.08 223.348C166.91 225.498 168.21 228.588 170.57 229.248C172.93 229.908 175.65 227.948 175.76 225.498H175.77Z" fill="#FCECDE"/>
<path d="M181.35 238.668C181.55 235.798 179.13 233.018 176.26 232.808C173.38 232.598 170.58 235.028 170.37 237.898C170.16 240.778 172.6 243.578 175.47 243.778C178.35 243.978 181.15 241.548 181.34 238.668H181.35Z" fill="#FCECDE"/>
</svg>
