<svg width="244" height="270" viewBox="0 0 244 270" fill="none" xmlns="http://www.w3.org/2000/svg">
<path d="M242.424 121.108C241.126 111.054 238.821 101.197 235.512 91.6691C235.961 92.4172 236.404 93.1473 236.852 93.8416C236.601 93.0935 236.35 92.3514 236.092 91.6092C235.835 90.8731 235.596 90.125 235.29 89.4009C234.704 87.9525 234.123 86.5042 233.537 85.0619C232.244 82.2311 230.957 79.4002 229.413 76.6891L228.294 74.6363C227.911 73.9601 227.486 73.3017 227.079 72.6374C226.666 71.9731 226.259 71.3088 225.84 70.6385L225.218 69.639C225.002 69.3099 224.775 68.9867 224.548 68.6695C223.644 67.3768 222.74 66.0841 221.819 64.7913C220.831 63.5405 219.844 62.2837 218.85 61.0209C218.497 60.5601 218.114 60.1172 217.731 59.6863C217.348 59.2494 216.965 58.8125 216.576 58.3697C212.189 53.4023 207.593 48.9675 202.763 44.9996C197.915 41.0556 192.876 37.5425 187.603 34.4065L185.61 33.2514C184.946 32.8684 184.288 32.4734 183.6 32.1323C182.241 31.4201 180.877 30.7139 179.506 29.9957C178.106 29.3434 176.699 28.691 175.293 28.0387C174.598 27.6975 173.868 27.4163 173.144 27.117C172.426 26.8238 171.702 26.5245 170.978 26.2253C165.148 23.9032 159.014 21.9641 152.497 20.5218L150.085 20.031C149.277 19.8814 148.475 19.7019 147.661 19.6001C146.033 19.3727 144.411 19.1393 142.789 18.9358L137.9 18.4989C136.266 18.3852 134.632 18.3373 132.998 18.2296C131.771 18.2176 131.358 18.3912 131.298 18.5827C131.245 18.7802 131.544 19.0196 131.735 19.265C132.124 19.7497 132.1 20.2225 128.091 20.3243C128.521 20.4021 128.946 20.5038 129.311 20.6115C130.072 20.5696 130.826 20.5337 131.562 20.4918C132.298 20.4619 133.016 20.4799 133.71 20.4679C135.105 20.4679 136.409 20.444 137.57 20.4918C139.893 20.6474 141.664 20.8569 142.478 21.2399C143.244 21.7546 142.125 21.9821 140.054 22.0958C124.889 20.426 109.137 21.8923 93.6959 26.9554C86.6997 29.2536 80.0865 32.1861 73.9042 35.6693C74.8438 34.6758 75.7834 33.7183 76.6392 32.7667C71.0075 35.7232 65.6691 39.5654 61.4318 43.1683C61.9525 42.6476 61.749 42.5159 61.6593 42.3902C60.7915 43.0605 59.9596 43.7009 59.1516 44.3233C58.3796 44.9936 57.6255 45.6519 56.8894 46.2923C56.1592 46.9447 55.4171 47.5551 54.7408 48.2194C54.0645 48.8837 53.3883 49.5421 52.712 50.2064C51.3355 51.4991 50.0667 52.9175 48.6962 54.3598C48.3551 54.7189 48.0079 55.084 47.6608 55.4551C47.3137 55.8261 46.9905 56.2271 46.6374 56.6221C45.9432 57.4061 45.219 58.22 44.4709 59.0639C48.0857 53.7434 52.9693 48.4169 58.7746 43.6051C64.5739 38.7814 71.2768 34.4783 78.3509 30.9234C78.9434 30.277 79.47 29.6546 79.9189 29.074C72.3721 32.4914 65.1783 36.8244 58.5831 41.9474C51.9699 47.0524 46.015 53.0133 40.8202 59.5307C35.6254 66.0541 31.2086 73.1521 27.6656 80.5912C24.1465 88.0483 21.5372 95.8585 19.8195 103.758C18.7183 109.516 17.9463 115.399 17.7488 121.372C17.9523 119.911 18.1378 118.457 18.3592 116.991C18.6405 115.542 18.9278 114.082 19.2091 112.622L18.4729 117.35L17.9582 122.102C17.8266 123.622 17.7607 125.13 17.653 126.668C17.6171 127.913 17.7009 129.164 17.7488 130.415C17.7727 131.043 17.8026 131.672 17.8206 132.3L17.8385 132.719C17.8565 134.299 17.9044 135.879 17.9882 137.465C17.7966 135.412 17.5513 133.353 17.5154 131.271C17.4256 133.527 17.5692 135.789 17.6171 138.069C17.6171 138.638 17.671 139.206 17.7129 139.775L17.8505 141.481L17.9882 143.192C18.036 143.761 18.0719 144.335 18.1557 144.904C18.2994 146.041 18.449 147.178 18.5986 148.315C18.6764 148.884 18.7363 149.458 18.838 150.021L19.1492 151.721L19.7776 155.114C20.029 156.233 20.3103 157.352 20.5796 158.471C21.0763 160.716 21.7945 162.9 22.4588 165.091C22.77 166.192 23.1949 167.257 23.584 168.328C23.9849 169.4 24.3859 170.465 24.7809 171.524C25.2417 172.56 25.6966 173.601 26.1514 174.63C26.6122 175.66 27.0492 176.695 27.5878 177.683C28.6232 179.658 29.6047 181.639 30.7837 183.488C32.3337 186.403 34.0035 189.227 35.787 191.956C35.6194 191.849 35.3082 191.46 34.9671 190.999C34.3925 190.179 33.7162 189.191 33.4828 189.335C33.4589 189.305 33.4409 189.275 33.417 189.251C31.8909 186.839 30.5862 184.308 29.2276 181.836C28.0007 179.263 26.6961 176.737 25.6487 174.104C24.4817 171.524 23.5959 168.843 22.6084 166.204C21.7885 163.511 20.8788 160.853 20.2504 158.112C19.4963 155.407 19.0176 152.636 18.467 149.883C18.072 147.106 17.5992 144.329 17.4136 141.517C17.1084 138.716 17.0845 135.891 17.0067 133.066C17.0366 131.654 17.0725 130.235 17.1024 128.823C17.1144 128.47 17.1144 128.111 17.1323 127.763L17.2101 126.704L17.3897 124.585C17.4974 117.673 18.2814 110.689 19.7776 103.77C20.2444 101.071 20.9506 98.4379 21.579 95.7687C22.3451 93.1533 23.0513 90.5021 23.979 87.9166C26.1694 81.7523 29.1319 75.552 32.8185 69.5732C36.5051 63.5944 40.9099 57.849 45.9013 52.5584C50.8926 47.2619 56.4585 42.4261 62.3894 38.1709C68.3263 33.9217 74.6164 30.2351 81.05 27.1888C81.2595 26.6382 81.3193 26.1774 81.1518 25.8004C80.9902 25.4233 80.6012 25.1241 79.9488 24.9625C72.6533 27.9908 65.711 31.9168 59.3012 36.555C52.8855 41.1993 47.0025 46.5616 41.7419 52.4567C31.2026 64.2587 23.2069 78.1255 17.7608 92.896C17.7069 93.1354 17.647 93.3807 17.5932 93.6201C16.1748 100.245 14.1639 108.798 13.3739 117.942C13.2781 119.085 13.1884 120.229 13.0926 121.378C13.0387 121.952 13.0208 122.527 12.9968 123.107L12.943 124.843C12.919 125.998 12.8472 127.153 12.8712 128.308C12.9011 129.457 12.925 130.606 12.955 131.749C12.9729 132.318 12.9909 132.886 13.0088 133.455C13.0567 134.024 13.1046 134.58 13.1465 135.143C13.2482 136.262 13.3499 137.375 13.4457 138.464C13.5474 139.559 13.7509 140.631 13.9065 141.69C14.0741 142.749 14.2417 143.785 14.4272 144.796C16.2107 152.882 18.5986 160.734 21.7227 168.221C24.8108 175.648 28.6591 182.716 33.3392 189.132C30.3827 185.415 27.8152 181.393 25.4153 177.449C24.8467 176.42 24.2961 175.408 23.7396 174.403C23.1949 173.398 22.6204 172.41 22.1596 171.399C21.6808 170.393 21.202 169.4 20.7412 168.436C20.5137 167.945 20.2803 167.467 20.0589 166.988C19.8554 166.497 19.6579 166.018 19.4604 165.545L18.5747 163.247C18.2934 162.475 17.9762 161.715 17.7548 160.925C17.276 159.357 16.8092 157.783 16.3543 156.209C15.9593 154.617 15.6182 153.031 15.2531 151.445C15.1633 151.05 15.0676 150.655 14.9898 150.26L14.7863 149.069C14.6487 148.273 14.511 147.483 14.3734 146.693C13.344 140.361 12.7455 134.179 12.0991 128.308C11.9555 127.464 11.9675 126.417 11.9675 125.238C11.9794 124.645 11.9914 124.023 12.0153 123.377C12.0453 122.73 12.0512 122.06 12.135 121.384C12.2667 120.025 12.4043 118.619 12.536 117.23C12.5899 116.536 12.6796 115.854 12.7694 115.189C12.8532 114.519 12.931 113.873 12.9909 113.244C13.0088 112.712 13.0327 112.167 13.0567 111.61C13.0687 111.329 13.0866 111.048 13.0986 110.767C13.1285 110.485 13.1524 110.204 13.1824 109.923C13.3021 108.78 13.4278 107.613 13.5534 106.428C13.2542 107.637 12.955 108.851 12.6497 110.066C12.3505 111.281 12.135 112.514 11.8717 113.741C11.8059 113.945 11.8358 113.43 11.9315 112.371C11.9854 111.844 12.0393 111.18 12.135 110.402C12.2547 109.629 12.3924 108.744 12.542 107.774C12.7036 106.805 12.8532 105.733 13.0627 104.602C13.2961 103.483 13.5474 102.286 13.8048 101.053C13.9424 100.437 14.0621 99.8024 14.2118 99.168C14.3733 98.5396 14.5409 97.8993 14.7085 97.2589C15.0496 95.9722 15.3608 94.6435 15.7439 93.3448C16.5458 90.7534 17.3059 88.1381 18.2036 85.7561C18.4131 85.1576 18.6226 84.5711 18.826 83.9966C19.0295 83.422 19.221 82.8535 19.4485 82.3208C19.8794 81.2436 20.2744 80.2321 20.6454 79.2985C21.3396 77.4193 22.0339 75.9351 22.4049 74.9116C22.788 73.8942 22.9137 73.3616 22.6922 73.4813C22.6623 73.4693 22.375 73.978 21.8723 74.9296C21.3756 75.8872 20.6275 77.2697 19.8494 79.0711C19.4485 79.9688 19.0056 80.9563 18.5268 82.0216C18.048 83.0869 17.6231 84.2719 17.1264 85.5047C16.6476 86.7436 16.1089 88.0423 15.6661 89.4487C15.2052 90.8432 14.6905 92.2855 14.2237 93.7937C12.3565 99.8503 10.7885 106.853 9.84884 114.01C8.89726 121.168 8.60999 128.476 8.81946 135.089C8.50825 137.674 7.45492 136.621 6.42554 134.407C6.29387 134.131 6.16818 133.838 6.0425 133.527C5.92879 133.216 5.82107 132.898 5.71334 132.569C5.49789 131.917 5.30039 131.229 5.13282 130.552C4.80365 129.2 4.52835 127.895 4.51638 126.997C4.46252 126.602 4.42062 126.142 4.37873 125.705L4.271 127.237C4.24108 127.751 4.24108 128.26 4.21714 128.775C4.1932 129.798 4.16328 130.822 4.14533 131.845L4.11539 133.377C4.11539 133.886 4.13336 134.395 4.14533 134.903C4.16927 135.867 4.19319 136.824 4.22311 137.782C3.5588 130.672 3.46903 123.532 4.01963 116.464C4.00766 118.062 4.00168 119.624 4.01963 121.102C4.09145 122.736 4.22313 124.274 4.36676 125.675C4.46252 124.382 4.55229 123.095 4.64805 121.803C4.76775 120.51 4.94129 119.229 5.08493 117.948C5.34227 115.375 5.82107 112.837 6.21606 110.306C6.56318 106.296 6.95818 103.058 7.45492 100.521C7.68833 99.2518 7.87385 98.1327 8.10127 97.1751C8.33468 96.2235 8.53816 95.4216 8.72967 94.7513C8.74164 93.4585 8.72968 91.7349 8.96908 89.4427C8.80749 89.8916 8.63392 90.3704 8.47233 90.8133C6.22803 98.8509 4.71985 107.182 4.05554 115.632C4.05554 115.566 4.05554 115.507 4.05554 115.435C2.8526 124.639 2.50548 134.167 3.27153 143.408C1.04519 127.344 1.96087 111.006 5.52782 95.655C5.10888 96.9237 4.80963 98.2524 4.45054 99.587C4.27698 100.257 4.10342 100.928 3.92987 101.604C3.84608 101.939 3.75631 102.274 3.67252 102.621C3.59472 102.962 3.52889 103.304 3.45109 103.651C3.1698 105.027 2.88252 106.422 2.60124 107.816L2.39776 108.863L2.23617 109.923L1.91299 112.041C1.43421 114.854 1.21277 117.703 0.943456 120.492C0.823759 121.886 0.799817 123.275 0.733984 124.639C0.686105 126.004 0.614285 127.344 0.656178 128.667C0.686102 130.002 0.716029 131.324 0.751938 132.647L0.781854 133.641L0.853687 134.628C0.90755 135.28 0.949438 135.945 0.997317 136.597C1.04519 137.249 1.09307 137.908 1.14095 138.56C1.19481 139.212 1.23073 139.865 1.3205 140.517C1.48209 141.816 1.64367 143.108 1.79928 144.395C1.88905 145.036 1.95488 145.682 2.05662 146.322L2.38579 148.231C2.60723 149.5 2.83465 150.769 3.05609 152.038C3.30745 153.295 3.61267 154.545 3.89396 155.784L4.32486 157.652L4.54031 158.579L4.79767 159.495C7.41901 169.31 11.1296 178.592 15.7917 187.258C16.3364 188.36 16.9887 189.407 17.5992 190.466C18.2216 191.52 18.838 192.573 19.4604 193.626C20.1188 194.662 20.795 195.673 21.4594 196.69L22.4648 198.217L22.9675 198.977L23.5061 199.713L25.6547 202.651C26.0198 203.13 26.3669 203.633 26.738 204.106L27.881 205.518L30.1612 208.325C30.9333 209.252 31.7592 210.132 32.5552 211.03L33.7641 212.371C34.1651 212.819 34.5661 213.268 34.991 213.687L37.5225 216.249L38.7914 217.518L40.114 218.732L42.7592 221.156C43.645 221.958 44.5846 222.7 45.5003 223.472C46.4279 224.232 47.3197 225.022 48.2713 225.735L51.126 227.883L52.5564 228.954L54.0346 229.96L57.0809 231.636C58.0804 232.198 59.1277 232.695 60.1391 233.24L63.1614 234.861C64.1849 235.382 65.1963 235.909 66.1957 236.453C66.7763 236.765 67.3628 237.082 67.9553 237.393C68.5597 237.686 69.1642 237.98 69.7806 238.279C71.0075 238.871 72.2404 239.5 73.4972 240.098C76.0527 241.217 78.6142 242.438 81.2775 243.444C83.8928 244.545 86.5979 245.419 89.2253 246.328C90.5539 246.747 91.8825 247.112 93.1812 247.495C93.8335 247.681 94.4799 247.866 95.1203 248.046C95.7726 248.202 96.413 248.351 97.0534 248.501C95.5153 247.531 100.566 248.842 100.626 248.573C101.919 248.734 103.248 248.872 104.582 249.051C105.247 249.147 105.917 249.237 106.599 249.333C107.281 249.405 107.964 249.476 108.658 249.554C110.034 249.698 111.429 249.895 112.841 250.039C114.254 250.165 115.69 250.29 117.132 250.422C117.491 250.452 117.851 250.494 118.216 250.524L119.311 250.578C120.047 250.619 120.777 250.655 121.513 250.697C122.249 250.739 122.992 250.781 123.728 250.823C124.464 250.859 125.212 250.853 125.96 250.865C127.45 250.877 128.952 250.925 130.455 250.895C131.957 250.841 133.459 250.775 134.967 250.721C135.829 250.697 136.26 250.709 136.697 250.775C137.134 250.829 137.582 250.919 138.456 250.949C138.456 250.949 138.456 250.949 138.45 250.949C123.243 252.822 108.083 251.727 93.7857 248.094C86.6398 246.274 79.6855 243.839 73.0364 240.792C66.3873 237.746 60.0254 234.113 54.0226 229.948C53.3942 229.601 52.7539 229.278 52.1315 228.913C51.515 228.547 50.8986 228.182 50.2821 227.817C52.1494 229.427 54.1603 230.852 56.1293 232.318L56.8714 232.863L57.6315 233.377L59.1636 234.395C60.193 235.065 61.1984 235.759 62.2398 236.394C63.2931 237.016 64.3464 237.632 65.3938 238.249L66.9738 239.165L68.5897 240.008C69.6669 240.559 70.7442 241.11 71.8215 241.666C72.8987 242.205 74.0119 242.672 75.1071 243.168C79.476 245.155 83.9826 246.693 88.4472 248.016C89.5664 248.345 90.7035 248.603 91.8167 248.884C92.9418 249.153 94.049 249.452 95.1741 249.662C96.2933 249.865 97.4184 250.075 98.5316 250.278C99.0882 250.374 99.6448 250.476 100.195 250.566C100.752 250.655 101.309 250.709 101.865 250.787C105.36 251.29 110.675 251.38 114.128 251.733C122.345 252.553 130.437 252.361 138.277 251.332C146.123 250.302 153.712 248.447 160.995 245.933C153.981 248.19 146.673 249.865 139.073 250.859C138.875 250.889 138.69 250.907 138.504 250.937C146.542 248.944 155.692 246.699 165.095 243.354C166.262 242.917 167.441 242.468 168.626 242.025C169.212 241.804 169.811 241.582 170.409 241.361C170.996 241.116 171.582 240.858 172.175 240.613C173.354 240.116 174.539 239.619 175.73 239.117C176.903 238.584 178.07 238.015 179.243 237.459L181.002 236.621C181.589 236.34 182.157 236.011 182.738 235.711C183.893 235.101 185.048 234.484 186.203 233.868C187.346 233.228 188.459 232.533 189.59 231.869L191.272 230.858C191.607 230.654 191.936 230.433 192.26 230.217C182.451 236.83 172.049 242.127 161.019 245.933C174.91 241.499 187.556 234.658 198.627 226.046C209.687 217.41 219.233 206.978 226.762 194.973C230.341 189.239 233.333 183.272 235.745 177.18C236.332 175.648 236.96 174.14 237.445 172.584C237.702 171.812 237.96 171.04 238.217 170.267C238.474 169.495 238.738 168.735 238.941 167.951C239.372 166.389 239.803 164.839 240.228 163.283C240.581 161.715 240.922 160.153 241.275 158.591C242.526 152.319 243.232 146.011 243.43 139.733C243.651 133.455 243.262 127.201 242.406 121.048L242.424 121.108ZM23.6618 96.3731C23.6618 96.3731 23.6438 96.415 23.6378 96.439C23.6857 96.2774 23.7276 96.1218 23.7755 95.9602C23.7336 96.0978 23.6977 96.2355 23.6558 96.3731H23.6618ZM4.79767 142.815L5.12084 145.221C5.21659 146.023 5.39017 146.813 5.52782 147.615C5.82706 149.207 6.0844 150.811 6.42554 152.391C6.79061 153.965 7.16166 155.545 7.52674 157.119C7.66439 157.753 7.84393 158.382 8.02946 159.01L8.56809 160.889L9.11271 162.769C9.29225 163.397 9.4658 164.025 9.68724 164.636C10.1062 165.869 10.5311 167.102 10.95 168.34C11.1715 168.957 11.369 169.579 11.6024 170.19L12.3265 172.009C12.8113 173.218 13.2961 174.433 13.7808 175.648C14.3075 176.845 14.8581 178.03 15.4027 179.221C16.4381 181.621 17.7189 183.913 18.9158 186.241C18.2036 185.032 17.4974 183.817 16.7912 182.596L16.2586 181.681C16.085 181.375 15.9294 181.058 15.7618 180.753L14.7743 178.886C14.4452 178.299 14.116 177.695 13.7868 177.078C13.6252 176.767 13.4577 176.462 13.2961 176.151C13.1345 175.839 12.9968 175.516 12.8472 175.199C12.2607 173.912 11.6682 172.59 11.0877 171.237C10.944 170.896 10.8004 170.555 10.6508 170.214C10.5251 169.861 10.3934 169.513 10.2678 169.16C10.0224 168.448 9.76505 167.742 9.50771 167.018C8.44241 164.151 7.67635 161.087 6.86241 157.957C5.43803 151.745 4.56426 145.095 4.271 138.297C4.38471 139.811 4.60614 141.319 4.80364 142.827L4.79767 142.815ZM17.8505 187.977C17.1084 186.768 16.3962 185.529 15.6601 184.296C12.4522 179.035 9.56157 172.781 7.49083 165.827C5.37221 158.89 3.92986 151.296 3.28949 143.474C5.61159 160.345 11.339 176.809 20.1786 191.555C19.4006 190.358 18.6285 189.167 17.8505 187.977ZM97.5322 239.751C96.2155 239.482 94.9048 239.218 93.6001 238.949C92.9478 238.811 92.2835 238.704 91.6431 238.53L89.71 238.045L87.771 237.561L86.8014 237.315L85.8439 237.028C84.5571 236.633 83.2704 236.232 81.9657 235.831C80.667 235.4 79.3862 234.897 78.0696 234.413C77.4172 234.161 76.7469 233.934 76.0946 233.647C75.4423 233.359 74.7839 233.072 74.1256 232.779C69.7687 231.013 65.4776 228.679 61.1925 226.082C59.1098 224.705 56.9492 223.365 54.9204 221.797C54.4117 221.414 53.891 221.031 53.3763 220.648C52.8616 220.265 52.3409 219.887 51.8502 219.463C50.8567 218.637 49.8572 217.805 48.8578 216.973C44.9437 213.544 41.1314 209.869 37.7081 205.817L36.3974 204.315C35.9665 203.812 35.5715 203.28 35.1526 202.765L32.6928 199.635C31.9208 198.558 31.1547 197.474 30.3887 196.397C30.0116 195.853 29.6226 195.32 29.2456 194.769L28.1803 193.094C27.121 191.561 26.0138 190.059 25.0622 188.497C22.9376 185.116 21.5072 181.95 20.2684 178.862C20.0649 178.401 19.8554 177.94 19.6519 177.485C19.7836 177.737 19.9213 178.006 20.0529 178.263C19.628 177.09 19.221 175.923 18.8201 174.75L18.5208 173.864C18.431 173.565 18.3473 173.266 18.2575 172.961C18.0839 172.356 17.9104 171.752 17.7368 171.135C17.5573 170.525 17.3777 169.902 17.1922 169.268C17.0067 168.64 16.8151 167.999 16.6655 167.335C16.3364 166.012 15.9892 164.654 15.6062 163.223C15.3549 162.715 15.1095 162.206 14.894 161.679L15.69 161.47C18.5567 168.49 21.5192 176.216 25.3614 183.823C29.2097 191.4 33.9496 198.815 39.5694 204.937C41.3528 206.954 43.3158 208.84 45.243 210.779C46.2364 211.718 47.2598 212.628 48.2653 213.556C48.774 214.016 49.2707 214.489 49.7914 214.932L51.3774 216.249L52.9694 217.571L53.7653 218.23L54.5852 218.858C55.6864 219.69 56.7936 220.522 57.8948 221.354C59.014 222.162 60.169 222.922 61.3121 223.706C61.8867 224.089 62.4433 224.496 63.0358 224.855L64.8073 225.932L66.5728 227.009C66.872 227.189 67.1593 227.368 67.4585 227.542L68.3682 228.039C69.5772 228.691 70.7921 229.343 72.001 229.996C74.4847 231.181 76.9265 232.414 79.47 233.389C81.9657 234.466 84.5452 235.298 87.0827 236.154C88.3694 236.531 89.6561 236.884 90.9369 237.237C91.5833 237.405 92.2057 237.608 92.858 237.74C93.5044 237.878 94.1507 238.015 94.7911 238.159C95.5751 238.339 96.4489 238.572 97.3646 238.841C98.2922 239.087 99.2558 239.344 100.231 239.607C101.201 239.871 102.164 240.164 103.086 240.397C104.014 240.613 104.893 240.816 105.683 240.978C102.871 240.661 100.195 240.158 97.5262 239.739L97.5322 239.751ZM202.697 222.664C202.188 223.089 201.674 223.514 201.159 223.945C200.638 224.364 200.088 224.759 199.555 225.166C198.478 225.968 197.389 226.776 196.305 227.584C195.228 228.308 194.139 229.032 193.056 229.762C194.103 229.032 195.15 228.308 196.204 227.578C197.263 226.776 198.328 225.974 199.399 225.166C199.938 224.765 200.471 224.364 201.009 223.957C201.53 223.532 202.045 223.107 202.571 222.676C203.607 221.809 204.684 220.977 205.719 220.097C204.75 220.983 203.715 221.815 202.697 222.67V222.664ZM230.107 181.286C230.024 181.639 229.928 182.01 229.82 182.405C229.718 182.8 229.593 183.219 229.437 183.644C229.138 184.505 228.791 185.439 228.402 186.438C228.198 186.941 227.995 187.456 227.785 187.988C227.564 188.515 227.307 189.036 227.049 189.58C226.535 190.664 225.984 191.795 225.403 192.962C222.956 197.546 219.796 202.478 216.468 206.709C213.117 210.916 209.741 214.531 207.258 216.781C201.075 222.389 193.864 227.919 186.005 232.731C178.129 237.507 169.625 241.523 161.216 244.599C159.583 244.27 159.63 243.629 160.929 242.767C161.581 242.336 162.545 241.846 163.772 241.307C164.987 240.727 166.459 240.05 168.159 239.332C168.584 239.153 169.027 238.967 169.475 238.782C169.918 238.578 170.373 238.363 170.84 238.147C171.78 237.722 172.761 237.273 173.79 236.807C174.826 236.37 175.867 235.801 176.956 235.268C178.04 234.724 179.177 234.191 180.32 233.581C184.88 231.145 189.794 228.188 194.648 224.747C199.465 221.264 204.175 217.254 208.425 212.987C209.466 211.898 210.531 210.844 211.525 209.743C212.494 208.624 213.458 207.511 214.409 206.422C215.343 205.32 216.193 204.165 217.055 203.058C217.48 202.496 217.922 201.957 218.311 201.394C218.7 200.832 219.089 200.269 219.472 199.713C219.85 199.156 220.227 198.606 220.592 198.061C220.963 197.516 221.328 196.984 221.645 196.427C222.303 195.326 222.938 194.261 223.536 193.219C223.686 192.962 223.835 192.705 223.979 192.447C224.117 192.184 224.248 191.926 224.38 191.669C224.637 191.148 224.895 190.64 225.14 190.143C225.631 189.15 226.104 188.192 226.511 187.27C227.277 185.391 227.917 183.691 228.378 182.195C228.791 180.675 229.048 179.364 229.138 178.317C230.574 177.21 230.766 178.485 230.107 181.297V181.286Z" fill="#FFD300"/>
<path d="M70.2782 218.132C82.2437 229.6 72.5222 251.417 57.5457 249.675C47.3479 248.493 40.1746 236.342 45.8262 223.681C51.6067 210.753 64.3381 212.444 70.2782 218.132Z" fill="#FCECDE"/>
<path d="M50.8745 227.741C50.5011 227.805 50.1102 227.767 49.7328 227.605C48.7313 227.165 48.2836 225.984 48.74 224.98C50.7611 220.474 53.7345 217.849 57.621 217.18C62.0505 216.419 66.0327 218.443 68.0868 220.431C68.8805 221.186 68.9039 222.44 68.1492 223.234C67.3945 224.027 66.1405 224.051 65.3468 223.296C63.9016 221.902 61.0612 220.625 58.2948 221.101C55.7661 221.536 53.8218 223.337 52.3578 226.612C52.0807 227.236 51.5053 227.65 50.8774 227.757L50.8745 227.741Z" fill="white"/>
<path d="M134.874 18.4359C119.841 5.17796 95.6757 11.6524 108.769 27.7946C113.706 33.8696 123.233 36.7392 129.677 36.6288C139.241 36.4808 144.257 26.7195 134.855 18.4392L134.874 18.4359Z" fill="#FCECDE"/>
<path d="M131.486 24.8296C130.852 24.9384 130.189 24.7647 129.671 24.3167C124.699 19.9355 118.552 18.6522 114.659 19.3215C113.839 19.4624 113.296 19.6516 112.961 19.8242C113.179 20.4197 113.7 21.4425 114.841 22.8382C115.595 23.7635 115.446 25.1316 114.524 25.9038C113.599 26.6574 112.234 26.5276 111.458 25.5869C109.047 22.6066 108.027 19.9052 108.668 18.1648C109.235 16.6672 111.184 15.5076 113.903 15.0401C118.821 14.1947 126.471 15.7376 132.526 21.0642C133.428 21.8489 133.513 23.2344 132.728 24.1365C132.391 24.5204 131.933 24.7527 131.467 24.8328L131.486 24.8296Z" fill="white"/>
<path d="M212.107 223.188C211.886 221.369 210.288 219.807 208.461 219.624C206.633 219.441 204.758 220.636 204.164 222.372C203.375 224.689 205.18 227.514 207.617 227.764C210.055 228.015 212.404 225.623 212.097 223.189L212.107 223.188Z" fill="#FCECDE"/>
<path d="M219.837 235.222C219.548 232.36 216.692 230.03 213.828 230.309C210.954 230.59 208.606 233.459 208.886 236.323C209.167 239.197 212.046 241.543 214.908 241.254C217.78 240.963 220.128 238.094 219.828 235.224L219.837 235.222Z" fill="#FCECDE"/>
</svg>
