<svg width="252" height="230" viewBox="0 0 252 230" fill="none" xmlns="http://www.w3.org/2000/svg">
<path d="M250.977 104.192C249.731 94.5679 247.52 85.1327 244.344 76.0127C244.775 76.7287 245.2 77.4276 245.631 78.0922C245.39 77.3761 245.148 76.6657 244.902 75.9554C244.655 75.2507 244.425 74.5347 244.132 73.8415C243.569 72.4551 243.012 71.0688 242.45 69.6882C241.209 66.9785 239.975 64.2688 238.493 61.6737L237.419 59.7088C237.052 59.0615 236.644 58.4313 236.254 57.7954C235.858 57.1595 235.467 56.5237 235.065 55.882L234.468 54.9253C234.261 54.6103 234.043 54.3009 233.825 53.9973C232.958 52.7599 232.091 51.5225 231.207 50.2851C230.259 49.0878 229.312 47.8848 228.358 46.676C228.02 46.2349 227.652 45.811 227.285 45.3985C226.917 44.9803 226.55 44.5621 226.176 44.1382C221.967 39.3834 217.558 35.1384 212.924 31.3403C208.272 27.5651 203.438 24.2024 198.379 21.2005L196.467 20.0949C195.829 19.7283 195.198 19.3502 194.537 19.0236C193.234 18.3419 191.925 17.6659 190.61 16.9785C189.266 16.3541 187.917 15.7296 186.567 15.1052C185.901 14.7787 185.201 14.5094 184.506 14.223C183.817 13.9423 183.122 13.6559 182.427 13.3694C176.834 11.1467 170.949 9.2906 164.696 7.90998L162.381 7.44023C161.606 7.29701 160.837 7.12515 160.056 7.02776C158.494 6.81007 156.938 6.58665 155.382 6.39188L150.69 5.97368C149.123 5.86484 147.555 5.81901 145.988 5.71589C144.811 5.70443 144.414 5.87057 144.357 6.05388C144.305 6.24293 144.592 6.47208 144.776 6.70696C145.149 7.17098 145.126 7.62355 141.279 7.72093C141.693 7.79541 142.1 7.89279 142.451 7.99591C143.18 7.95581 143.903 7.92144 144.61 7.88134C145.316 7.85269 146.005 7.86988 146.671 7.85842C148.009 7.85842 149.261 7.83551 150.375 7.88134C152.603 8.03028 154.302 8.23079 155.083 8.59742C155.818 9.09009 154.744 9.30778 152.758 9.41663C138.207 7.81832 123.094 9.22185 108.279 14.0683C101.567 16.2681 95.2216 19.0752 89.29 22.4093C90.1915 21.4583 91.093 20.5417 91.9141 19.6309C86.5108 22.4609 81.3888 26.1387 77.3234 29.5873C77.8229 29.089 77.6277 28.9629 77.5416 28.8426C76.709 29.4842 75.9108 30.0972 75.1356 30.693C74.3949 31.3346 73.6714 31.9648 72.9651 32.5777C72.2646 33.2021 71.5525 33.7865 70.9037 34.4224C70.2548 35.0582 69.6059 35.6884 68.9571 36.3243C67.6364 37.5617 66.4191 38.9194 65.1041 40.3C64.7768 40.6437 64.4438 40.9932 64.1107 41.3483C63.7777 41.7035 63.4676 42.0873 63.1289 42.4654C62.4628 43.2159 61.768 43.995 61.0502 44.8027C64.5185 39.7099 69.204 34.6114 74.7739 30.0055C80.338 25.3882 86.7692 21.2693 93.5564 17.8664C94.1248 17.2477 94.6301 16.652 95.0608 16.0963C87.82 19.3674 80.9179 23.5149 74.5901 28.4187C68.2451 33.3053 62.5317 39.011 57.5475 45.2496C52.5633 51.4939 48.3257 58.2881 44.9263 65.4089C41.5499 72.5468 39.0464 80.0227 37.3984 87.5846C36.3419 93.0956 35.6011 98.7269 35.4116 104.444C35.6068 103.046 35.7849 101.654 35.9973 100.251C36.2672 98.8644 36.5428 97.4666 36.8127 96.0688L36.1064 100.594L35.6126 105.143C35.4863 106.598 35.4231 108.042 35.3197 109.514C35.2853 110.706 35.3657 111.903 35.4116 113.1C35.4346 113.702 35.4633 114.303 35.4805 114.905L35.4977 115.306C35.515 116.818 35.5609 118.33 35.6413 119.849C35.4575 117.884 35.2221 115.913 35.1877 113.919C35.1015 116.079 35.2393 118.245 35.2853 120.427C35.2853 120.971 35.337 121.516 35.3772 122.06L35.5092 123.693L35.6413 125.331C35.6872 125.875 35.7217 126.425 35.8021 126.969C35.9399 128.058 36.0835 129.146 36.227 130.235C36.3017 130.779 36.3591 131.329 36.4567 131.867L36.7553 133.494L37.3582 136.743C37.5994 137.814 37.8692 138.885 38.1276 139.956C38.6042 142.105 39.2933 144.196 39.9307 146.292C40.2293 147.346 40.6369 148.366 41.0102 149.391C41.3949 150.417 41.7796 151.437 42.1586 152.451C42.6008 153.442 43.0371 154.438 43.4735 155.424C43.9157 156.409 44.3349 157.4 44.8517 158.345C45.8451 160.236 46.7868 162.132 47.918 163.902C49.4052 166.692 51.0072 169.396 52.7184 172.008C52.5576 171.905 52.259 171.533 51.9317 171.092C51.3805 170.307 50.7316 169.362 50.5076 169.499C50.4847 169.471 50.4675 169.442 50.4445 169.419C48.9802 167.11 47.7285 164.687 46.425 162.321C45.2479 159.858 43.9961 157.44 42.9912 154.92C41.8715 152.451 41.0217 149.884 40.0742 147.358C39.2875 144.78 38.4147 142.236 37.8118 139.613C37.0883 137.023 36.629 134.371 36.1007 131.736C35.7217 129.078 35.2681 126.419 35.0901 123.727C34.7972 121.046 34.7742 118.342 34.6996 115.638C34.7283 114.286 34.7628 112.928 34.7915 111.576C34.803 111.238 34.8029 110.895 34.8202 110.562L34.8948 109.548L35.0671 107.52C35.1704 100.904 35.9227 94.2184 37.3582 87.5961C37.8061 85.0124 38.4836 82.4918 39.0866 79.9368C39.8216 77.4334 40.4991 74.8956 41.3892 72.4208C43.4908 66.5202 46.3331 60.5853 49.8703 54.8623C53.4074 49.1394 57.6336 43.6398 62.4226 38.5757C67.2115 33.5058 72.5517 28.877 78.2421 24.8039C83.9383 20.7365 89.9733 17.2076 96.1461 14.2917C96.347 13.7647 96.4044 13.3236 96.2437 12.9627C96.0886 12.6018 95.7154 12.3153 95.0895 12.1607C88.0898 15.0594 81.429 18.8174 75.2792 23.2571C69.1236 27.7026 63.4791 32.8355 58.4318 38.4783C48.3199 49.7753 40.6484 63.0486 35.4231 77.187C35.3714 77.4162 35.314 77.6511 35.2623 77.8802C33.9014 84.2219 31.9721 92.4082 31.2141 101.162C31.1222 102.256 31.0361 103.35 30.9442 104.45C30.8926 105 30.8753 105.55 30.8524 106.105L30.8007 107.767C30.7777 108.872 30.7088 109.978 30.7318 111.084C30.7605 112.184 30.7835 113.284 30.8122 114.378C30.8294 114.922 30.8466 115.466 30.8639 116.01C30.9098 116.555 30.9557 117.087 30.9959 117.626C31.0935 118.697 31.1912 119.763 31.283 120.805C31.3806 121.854 31.5759 122.879 31.7252 123.893C31.886 124.907 32.0467 125.898 32.2247 126.866C33.9359 134.606 36.227 142.122 39.2244 149.288C42.1873 156.398 45.8795 163.163 50.3698 169.304C47.5332 165.747 45.0699 161.897 42.7673 158.122C42.2218 157.137 41.6935 156.169 41.1595 155.206C40.637 154.244 40.0857 153.298 39.6436 152.33C39.1842 151.368 38.7248 150.417 38.2827 149.495C38.0645 149.025 37.8405 148.567 37.6281 148.108C37.4328 147.638 37.2434 147.18 37.0539 146.728L36.204 144.528C35.9342 143.789 35.6298 143.061 35.4174 142.305C34.958 140.804 34.5101 139.298 34.0737 137.791C33.6947 136.267 33.3674 134.749 33.0172 133.231C32.931 132.853 32.8392 132.475 32.7645 132.097L32.5693 130.957C32.4372 130.195 32.3051 129.438 32.1731 128.682C31.1854 122.621 30.6112 116.704 29.991 111.084C29.8532 110.276 29.8647 109.273 29.8647 108.145C29.8762 107.578 29.8877 106.982 29.9107 106.363C29.9394 105.745 29.9451 105.103 30.0255 104.456C30.1518 103.155 30.2839 101.809 30.4102 100.48C30.4619 99.8154 30.548 99.1623 30.6342 98.5264C30.7146 97.8848 30.7892 97.2661 30.8466 96.6646C30.8639 96.1547 30.8868 95.6334 30.9098 95.1006C30.9213 94.8314 30.9385 94.5621 30.95 94.2929C30.9787 94.0237 31.0017 93.7544 31.0304 93.4852C31.1452 92.391 31.2658 91.2739 31.3864 90.1396C31.0993 91.2968 30.8122 92.4597 30.5193 93.6227C30.2322 94.7856 30.0255 95.9657 29.7728 97.1401C29.7097 97.3348 29.7384 96.8422 29.8303 95.8282C29.8819 95.3241 29.9336 94.6882 30.0255 93.9435C30.1403 93.2045 30.2724 92.3566 30.416 91.4286C30.571 90.5005 30.7146 89.4751 30.9155 88.3923C31.1395 87.3211 31.3806 86.1754 31.6276 84.9952C31.7596 84.4052 31.8745 83.7979 32.018 83.1907C32.1731 82.5892 32.3338 81.9762 32.4946 81.3633C32.8219 80.1316 33.1205 78.8598 33.488 77.6167C34.2574 75.1362 34.9867 72.6327 35.848 70.3527C36.049 69.7798 36.25 69.2184 36.4452 68.6685C36.6404 68.1185 36.8242 67.5743 37.0424 67.0644C37.4558 66.0333 37.8348 65.0651 38.1908 64.1715C38.8569 62.3726 39.523 60.9519 39.879 59.9723C40.2465 58.9984 40.3671 58.4886 40.1546 58.6032C40.1259 58.5917 39.8503 59.0786 39.3679 59.9895C38.8913 60.9061 38.1736 62.2294 37.4271 63.9538C37.0424 64.8131 36.6175 65.7583 36.1581 66.778C35.6987 67.7977 35.291 68.932 34.8144 70.1121C34.3551 71.2979 33.8383 72.5411 33.4134 73.8873C32.9712 75.2221 32.4774 76.6027 32.0295 78.0463C30.238 83.8438 28.7335 90.5463 27.832 97.3979C26.919 104.249 26.6434 111.244 26.8444 117.574C26.5458 120.049 25.5352 119.041 24.5475 116.921C24.4212 116.658 24.3006 116.377 24.18 116.079C24.0709 115.781 23.9676 115.478 23.8642 115.163C23.6575 114.538 23.468 113.879 23.3072 113.232C22.9914 111.937 22.7273 110.688 22.7158 109.829C22.6641 109.451 22.6239 109.01 22.5837 108.592L22.4804 110.058C22.4516 110.551 22.4517 111.038 22.4287 111.531C22.4057 112.51 22.377 113.49 22.3598 114.469L22.3311 115.936C22.3311 116.423 22.3483 116.91 22.3598 117.397C22.3827 118.319 22.4057 119.236 22.4344 120.152C21.797 113.347 21.7109 106.512 22.2392 99.7466C22.2277 101.276 22.222 102.771 22.2392 104.186C22.3081 105.75 22.4344 107.223 22.5722 108.563C22.6641 107.326 22.7502 106.094 22.8421 104.857C22.957 103.619 23.1235 102.393 23.2613 101.167C23.5082 98.704 23.9676 96.275 24.3465 93.8518C24.6796 90.0136 25.0586 86.9144 25.5352 84.4854C25.7591 83.2709 25.9371 82.1996 26.1553 81.2831C26.3793 80.3722 26.5745 79.6045 26.7582 78.9629C26.7697 77.7255 26.7582 76.0757 26.9879 73.8816C26.8329 74.3112 26.6664 74.7695 26.5113 75.1935C24.358 82.8871 22.911 90.8614 22.2736 98.9503C22.2736 98.8873 22.2736 98.83 22.2736 98.7613C21.1195 107.572 20.7864 116.692 21.5214 125.537C19.3853 110.161 20.2639 94.522 23.6862 79.828C23.2843 81.0424 22.9971 82.3142 22.6526 83.5917C22.4861 84.2333 22.3196 84.8749 22.1531 85.5223C22.0727 85.8431 21.9865 86.1639 21.9061 86.4962C21.8315 86.8227 21.7683 87.1492 21.6937 87.4815C21.4238 88.7991 21.1482 90.1339 20.8783 91.4687L20.6831 92.4712L20.528 93.4852L20.218 95.5131C19.7586 98.2056 19.5461 100.932 19.2877 103.602C19.1729 104.937 19.1499 106.266 19.0868 107.572C19.0408 108.878 18.9719 110.161 19.0121 111.427C19.0408 112.705 19.0695 113.971 19.104 115.237L19.1327 116.188L19.2016 117.133C19.2533 117.758 19.2935 118.394 19.3394 119.018C19.3854 119.642 19.4313 120.273 19.4772 120.897C19.5289 121.521 19.5634 122.146 19.6495 122.77C19.8045 124.013 19.9596 125.251 20.1089 126.482C20.195 127.095 20.2582 127.714 20.3558 128.327L20.6716 130.155C20.8841 131.369 21.1023 132.583 21.3147 133.798C21.5559 135.001 21.8487 136.198 22.1186 137.384L22.532 139.171L22.7387 140.059L22.9857 140.936C25.5007 150.331 29.0608 159.216 33.5339 167.511C34.0565 168.565 34.6824 169.568 35.2681 170.582C35.8652 171.59 36.4567 172.598 37.0539 173.607C37.6855 174.598 38.3344 175.566 38.9717 176.54L39.9364 178.001L40.4187 178.728L40.9355 179.433L42.997 182.246C43.3472 182.704 43.6803 183.185 44.0363 183.638L45.133 184.99L47.3208 187.676C48.0615 188.564 48.8539 189.406 49.6176 190.266L50.7775 191.549C51.1623 191.979 51.547 192.408 51.9547 192.809L54.3836 195.261L55.6009 196.476L56.8699 197.638L59.4079 199.959C60.2578 200.726 61.1593 201.437 62.0378 202.176C62.9279 202.903 63.7834 203.659 64.6964 204.341L67.4354 206.398L68.8078 207.423L70.2261 208.386L73.1489 209.99C74.1078 210.528 75.1127 211.004 76.0831 211.525L78.9828 213.077C79.9648 213.576 80.9352 214.08 81.8941 214.601C82.4511 214.899 83.0138 215.203 83.5823 215.501C84.1622 215.781 84.7422 216.062 85.3336 216.348C86.5108 216.916 87.6937 217.517 88.8995 218.09C91.3514 219.161 93.809 220.33 96.3643 221.292C98.8736 222.346 101.469 223.183 103.99 224.053C105.265 224.454 106.539 224.804 107.785 225.171C108.411 225.348 109.031 225.526 109.646 225.698C110.272 225.847 110.886 225.99 111.5 226.133C110.025 225.205 114.871 226.46 114.929 226.202C116.169 226.356 117.444 226.488 118.724 226.66C119.361 226.752 120.005 226.838 120.659 226.929C121.314 226.998 121.968 227.067 122.634 227.141C123.955 227.279 125.293 227.468 126.648 227.605C128.003 227.726 129.381 227.846 130.765 227.972C131.11 228.001 131.454 228.041 131.805 228.069L132.855 228.121C133.562 228.161 134.262 228.195 134.969 228.235C135.675 228.276 136.387 228.316 137.093 228.356C137.799 228.39 138.517 228.384 139.235 228.396C140.665 228.407 142.106 228.453 143.547 228.424C144.989 228.373 146.43 228.31 147.877 228.258C148.704 228.235 149.117 228.247 149.536 228.31C149.955 228.361 150.386 228.447 151.224 228.476C151.224 228.476 151.224 228.476 151.219 228.476C136.628 230.269 122.083 229.221 108.365 225.743C101.509 224.002 94.8369 221.67 88.4574 218.754C82.0779 215.839 75.974 212.361 70.2146 208.374C69.6117 208.042 68.9973 207.732 68.4001 207.383C67.8087 207.034 67.2172 206.684 66.6258 206.335C68.4173 207.876 70.3467 209.239 72.2359 210.643L72.9479 211.164L73.6771 211.657L75.1471 212.63C76.1348 213.272 77.0994 213.937 78.0986 214.544C79.1092 215.14 80.1198 215.73 81.1246 216.32L82.6406 217.196L84.191 218.004C85.2245 218.531 86.2581 219.058 87.2917 219.591C88.3253 220.106 89.3933 220.553 90.4441 221.029C94.6359 222.931 98.9597 224.403 103.243 225.669C104.317 225.984 105.408 226.23 106.476 226.5C107.556 226.757 108.618 227.044 109.697 227.244C110.771 227.439 111.851 227.64 112.919 227.834C113.453 227.926 113.987 228.023 114.515 228.109C115.049 228.195 115.583 228.247 116.117 228.321C119.471 228.803 124.57 228.888 127.883 229.226C135.767 230.011 143.53 229.828 151.052 228.843C158.58 227.857 165.861 226.081 172.849 223.675C166.12 225.835 159.108 227.439 151.816 228.39C151.626 228.419 151.448 228.436 151.27 228.465C158.982 226.557 167.762 224.409 176.783 221.206C177.902 220.788 179.034 220.358 180.171 219.935C180.733 219.723 181.307 219.511 181.882 219.299C182.444 219.064 183.007 218.817 183.576 218.583C184.707 218.107 185.844 217.632 186.986 217.15C188.112 216.641 189.232 216.096 190.357 215.564L192.045 214.762C192.608 214.492 193.153 214.177 193.71 213.891C194.819 213.306 195.927 212.716 197.035 212.126C198.132 211.513 199.2 210.849 200.285 210.213L201.899 209.245C202.22 209.05 202.536 208.838 202.846 208.632C193.435 214.962 183.455 220.032 172.872 223.675C186.2 219.43 198.333 212.883 208.956 204.639C219.567 196.372 228.726 186.387 235.95 174.896C239.383 169.408 242.254 163.696 244.568 157.864C245.131 156.398 245.734 154.954 246.199 153.465C246.446 152.726 246.693 151.987 246.94 151.248C247.187 150.509 247.44 149.781 247.635 149.031C248.048 147.535 248.462 146.052 248.869 144.562C249.208 143.061 249.535 141.566 249.874 140.071C251.074 134.067 251.752 128.029 251.941 122.02C252.154 116.01 251.781 110.024 250.959 104.135L250.977 104.192ZM41.0848 80.5154C41.0848 80.5154 41.0676 80.5555 41.0619 80.5784C41.1078 80.4237 41.148 80.2748 41.1939 80.1201C41.1537 80.2519 41.1193 80.3836 41.0791 80.5154H41.0848ZM22.9857 124.97L23.2957 127.273C23.3876 128.041 23.5541 128.797 23.6862 129.564C23.9733 131.088 24.2202 132.624 24.5475 134.136C24.8978 135.643 25.2538 137.155 25.6041 138.662C25.7361 139.269 25.9084 139.87 26.0864 140.472L26.6032 142.271L27.1257 144.069C27.298 144.671 27.4645 145.273 27.677 145.857C28.0789 147.037 28.4866 148.217 28.8886 149.403C29.101 149.993 29.2905 150.589 29.5145 151.173L30.2093 152.915C30.6744 154.072 31.1395 155.235 31.6046 156.398C32.1099 157.543 32.6382 158.678 33.1607 159.818C34.1541 162.115 35.3829 164.309 36.5313 166.537C35.848 165.38 35.1704 164.217 34.4929 163.049L33.9818 162.172C33.8153 161.88 33.666 161.576 33.5052 161.284L32.5578 159.497C32.242 158.935 31.9261 158.357 31.6103 157.767C31.4553 157.469 31.2945 157.177 31.1395 156.879C30.9844 156.581 30.8524 156.272 30.7088 155.968C30.1461 154.736 29.5776 153.47 29.0206 152.176C28.8828 151.849 28.745 151.523 28.6015 151.196C28.4809 150.858 28.3545 150.526 28.234 150.188C27.9985 149.506 27.7516 148.83 27.5047 148.137C26.4826 145.393 25.7476 142.46 24.9667 139.464C23.6001 133.517 22.7617 127.153 22.4804 120.645C22.5895 122.094 22.8019 123.538 22.9914 124.982L22.9857 124.97ZM35.5092 168.199C34.7972 167.042 34.1139 165.856 33.4076 164.676C30.3298 159.64 27.5564 153.654 25.5696 146.997C23.5369 140.357 22.153 133.088 21.5386 125.6C23.7666 141.749 29.2618 157.509 37.7429 171.625C36.9964 170.479 36.2557 169.339 35.5092 168.199ZM111.96 217.758C110.697 217.5 109.439 217.248 108.187 216.99C107.561 216.858 106.924 216.755 106.31 216.589L104.455 216.125L102.594 215.661L101.664 215.426L100.746 215.151C99.5109 214.773 98.2764 214.389 97.0246 214.005C95.7785 213.593 94.5497 213.112 93.2865 212.648C92.6606 212.407 92.0175 212.189 91.3916 211.914C90.7657 211.639 90.1341 211.364 89.5024 211.084C85.3222 209.394 81.2051 207.16 77.0937 204.673C75.0954 203.356 73.0225 202.072 71.0759 200.572C70.5879 200.205 70.0883 199.838 69.5945 199.472C69.1007 199.105 68.6011 198.744 68.1302 198.337C67.177 197.547 66.2181 196.751 65.2592 195.954C61.5038 192.672 57.8461 189.154 54.5616 185.276L53.3041 183.838C52.8907 183.357 52.5117 182.847 52.1097 182.354L49.7497 179.358C49.009 178.327 48.274 177.29 47.539 176.259C47.1772 175.738 46.804 175.228 46.4422 174.701L45.4201 173.097C44.4038 171.63 43.3415 170.192 42.4285 168.697C40.39 165.46 39.0177 162.43 37.8291 159.474C37.6338 159.033 37.4328 158.592 37.2376 158.156C37.3639 158.397 37.496 158.655 37.6223 158.901C37.2146 157.778 36.8242 156.661 36.4395 155.538L36.1524 154.691C36.0662 154.404 35.9858 154.118 35.8997 153.825C35.7332 153.247 35.5667 152.668 35.4001 152.078C35.2279 151.494 35.0556 150.898 34.8776 150.291C34.6996 149.689 34.5158 149.076 34.3723 148.44C34.0565 147.174 33.7234 145.874 33.3559 144.505C33.1148 144.018 32.8793 143.531 32.6726 143.027L33.4363 142.826C36.1868 149.546 39.0292 156.942 42.7156 164.223C46.4078 171.476 50.9556 178.573 56.3474 184.434C58.0586 186.364 59.942 188.169 61.7909 190.025C62.7441 190.924 63.726 191.795 64.6907 192.683C65.1788 193.124 65.6554 193.577 66.1549 194.001L67.6766 195.261L69.204 196.527L69.9677 197.157L70.7544 197.759C71.8109 198.555 72.8732 199.351 73.9298 200.148C75.0036 200.921 76.1118 201.649 77.2085 202.399C77.7598 202.766 78.2938 203.155 78.8623 203.499L80.5619 204.53L82.2559 205.561C82.543 205.733 82.8186 205.905 83.1057 206.071L83.9785 206.547C85.1384 207.171 86.3041 207.795 87.464 208.42C89.847 209.554 92.1897 210.734 94.6301 211.668C97.0246 212.699 99.4995 213.495 101.934 214.315C103.169 214.676 104.403 215.014 105.632 215.352C106.252 215.512 106.849 215.707 107.475 215.833C108.095 215.965 108.716 216.096 109.33 216.234C110.082 216.406 110.921 216.629 111.799 216.887C112.689 217.122 113.614 217.368 114.55 217.62C115.48 217.872 116.404 218.153 117.289 218.376C118.179 218.583 119.023 218.777 119.781 218.932C117.082 218.628 114.515 218.147 111.954 217.746L111.96 217.758ZM212.86 201.402C212.372 201.809 211.879 202.216 211.385 202.628C210.885 203.029 210.357 203.407 209.846 203.797C208.812 204.564 207.767 205.338 206.728 206.111C205.694 206.804 204.649 207.498 203.61 208.196C204.615 207.498 205.62 206.804 206.63 206.105C207.647 205.338 208.669 204.57 209.697 203.797C210.213 203.413 210.724 203.029 211.241 202.64C211.741 202.233 212.235 201.826 212.74 201.414C213.733 200.583 214.767 199.787 215.76 198.945C214.83 199.792 213.837 200.589 212.86 201.408V201.402ZM239.159 161.794C239.079 162.132 238.987 162.487 238.884 162.865C238.786 163.243 238.666 163.644 238.516 164.051C238.229 164.876 237.896 165.77 237.523 166.726C237.328 167.208 237.132 167.7 236.931 168.21C236.719 168.714 236.472 169.213 236.225 169.734C235.731 170.771 235.203 171.854 234.646 172.971C232.298 177.359 229.266 182.079 226.073 186.13C222.857 190.157 219.619 193.617 217.236 195.771C211.304 201.139 204.385 206.432 196.846 211.038C189.289 215.609 181.129 219.453 173.062 222.398C171.494 222.083 171.54 221.47 172.786 220.645C173.412 220.232 174.337 219.763 175.514 219.247C176.679 218.691 178.092 218.044 179.723 217.357C180.13 217.185 180.555 217.007 180.986 216.83C181.411 216.635 181.847 216.429 182.295 216.222C183.197 215.816 184.138 215.386 185.126 214.939C186.119 214.521 187.119 213.977 188.164 213.467C189.203 212.946 190.294 212.436 191.391 211.851C195.766 209.52 200.48 206.69 205.137 203.396C209.76 200.062 214.279 196.224 218.356 192.139C219.355 191.096 220.377 190.088 221.33 189.034C222.26 187.963 223.185 186.897 224.098 185.855C224.994 184.8 225.809 183.695 226.636 182.635C227.044 182.097 227.468 181.581 227.842 181.042C228.215 180.504 228.588 179.965 228.956 179.433C229.317 178.9 229.679 178.373 230.029 177.852C230.385 177.33 230.736 176.82 231.04 176.288C231.672 175.234 232.28 174.214 232.855 173.217C232.998 172.971 233.142 172.724 233.279 172.478C233.412 172.226 233.538 171.98 233.664 171.733C233.911 171.235 234.158 170.748 234.393 170.273C234.864 169.322 235.318 168.405 235.708 167.523C236.443 165.724 237.058 164.097 237.5 162.665C237.896 161.21 238.143 159.955 238.229 158.953C239.607 157.893 239.791 159.113 239.159 161.806V161.794Z" fill="white"/>
<path d="M52.6346 172.616C64.6002 184.083 54.8787 205.9 39.9021 204.159C29.7043 202.976 22.5311 190.825 28.1827 178.164C33.9632 165.237 46.6945 166.927 52.6346 172.616Z" fill="#FCECDE"/>
<path d="M33.2319 182.224C32.8585 182.288 32.4676 182.25 32.0903 182.088C31.0887 181.649 30.641 180.468 31.0974 179.463C33.1186 174.957 36.0919 172.332 39.9784 171.664C44.4079 170.902 48.3901 172.926 50.4442 174.915C51.2379 175.669 51.2613 176.923 50.5066 177.717C49.7519 178.511 48.4979 178.534 47.7042 177.779C46.259 176.385 43.4186 175.109 40.6523 175.584C38.1235 176.019 36.1792 177.821 34.7152 181.095C34.4381 181.72 33.8627 182.133 33.2348 182.241L33.2319 182.224Z" fill="white"/>
<path d="M72.0263 36.5412C56.9933 23.2832 32.828 29.7576 45.9211 45.8998C50.8586 51.9748 60.3852 54.8444 66.8296 54.734C76.3938 54.586 81.4095 44.8248 72.0077 36.5444L72.0263 36.5412Z" fill="#FCECDE"/>
<path d="M68.6379 42.9345C68.0045 43.0434 67.3418 42.8696 66.8237 42.4217C61.8512 38.0405 55.7043 36.7572 51.8109 37.4264C50.9912 37.5673 50.4484 37.7565 50.1136 37.9292C50.3311 38.5247 50.852 39.5475 51.9934 40.9432C52.747 41.8685 52.5985 43.2366 51.6764 44.0088C50.7511 44.7624 49.3862 44.6326 48.6108 43.6919C46.1998 40.7116 45.1793 38.0101 45.8199 36.2698C46.3872 34.7722 48.336 33.6125 51.0558 33.145C55.9737 32.2997 63.6229 33.8426 69.6785 39.1692C70.5805 39.9539 70.6653 41.3394 69.8805 42.2415C69.5438 42.6254 69.085 42.8577 68.6193 42.9377L68.6379 42.9345Z" fill="white"/>
<path d="M239.733 150.919C239.512 149.1 237.914 147.538 236.087 147.355C234.259 147.172 232.384 148.367 231.79 150.103C231.001 152.42 232.806 155.245 235.243 155.495C237.681 155.746 240.03 153.354 239.723 150.92L239.733 150.919Z" fill="#FCECDE"/>
<path d="M247.462 162.953C247.173 160.091 244.317 157.761 241.453 158.04C238.579 158.321 236.231 161.19 236.511 164.054C236.792 166.928 239.671 169.274 242.533 168.985C245.405 168.694 247.753 165.825 247.453 162.955L247.462 162.953Z" fill="#FCECDE"/>
</svg>
