<svg width="246" height="230" viewBox="0 0 246 230" fill="none" xmlns="http://www.w3.org/2000/svg">
<path d="M236.99 101.115C235.76 91.2325 233.578 81.5446 230.443 72.1803C230.868 72.9156 231.288 73.6332 231.713 74.3155C231.475 73.5802 231.237 72.8509 230.993 72.1215C230.749 71.398 230.522 70.6627 230.233 69.951C229.678 68.5275 229.128 67.104 228.573 65.6864C227.348 62.9042 226.13 60.1219 224.667 57.4573L223.607 55.4397C223.244 54.775 222.842 54.128 222.457 53.4751C222.065 52.8222 221.68 52.1693 221.283 51.5105L220.694 50.5281C220.49 50.2046 220.274 49.887 220.059 49.5752C219.203 48.3047 218.347 47.0341 217.474 45.7636C216.539 44.5342 215.604 43.299 214.663 42.0579C214.328 41.6049 213.966 41.1697 213.603 40.7461C213.24 40.3167 212.877 39.8874 212.509 39.4521C208.354 34.5699 204.001 30.2112 199.427 26.3114C194.836 22.435 190.063 18.9822 185.069 15.9L183.182 14.7647C182.553 14.3883 181.929 14.0001 181.277 13.6648C179.991 12.9648 178.698 12.2707 177.4 11.5649C176.074 10.9237 174.742 10.2826 173.41 9.6414C172.752 9.30612 172.061 9.02966 171.375 8.73555C170.695 8.44732 170.009 8.15322 169.323 7.85911C163.802 5.57684 157.992 3.67103 151.82 2.25343L149.535 1.7711C148.77 1.62404 148.011 1.44758 147.24 1.34758C145.698 1.12406 144.162 0.89466 142.626 0.694667L137.995 0.265271C136.447 0.15351 134.9 0.106453 133.353 0.000574892C132.191 -0.0111894 131.8 0.159393 131.743 0.347621C131.692 0.541732 131.975 0.777017 132.157 1.01818C132.525 1.49464 132.502 1.95933 128.705 2.05932C129.113 2.13579 129.515 2.23579 129.861 2.34167C130.581 2.30049 131.295 2.2652 131.992 2.22402C132.689 2.19461 133.37 2.21226 134.027 2.20049C135.348 2.20049 136.584 2.17697 137.683 2.22402C139.882 2.37696 141.56 2.58283 142.331 2.95929C143.057 3.46515 141.997 3.68868 140.035 3.80044C125.672 2.15932 110.754 3.60044 96.1296 8.57673C89.5035 10.8355 83.2402 13.7177 77.3849 17.1411C78.2749 16.1647 79.1648 15.2235 79.9753 14.2883C74.6415 17.1941 69.5855 20.9704 65.5724 24.5114C66.0656 23.9997 65.8728 23.8703 65.7878 23.7468C64.9659 24.4056 64.178 25.035 63.4128 25.6467C62.6816 26.3055 61.9675 26.9525 61.2703 27.5819C60.5788 28.2231 59.8759 28.823 59.2354 29.476C58.5949 30.1289 57.9544 30.7759 57.3139 31.4288C56.0102 32.6994 54.8085 34.0934 53.5105 35.511C53.1874 35.864 52.8587 36.2228 52.5299 36.5875C52.2012 36.9522 51.8951 37.3463 51.5607 37.7345C50.9032 38.505 50.2173 39.305 49.5088 40.1344C52.9324 34.9052 57.5576 29.6701 63.0557 24.9408C68.5482 20.1998 74.8966 15.9706 81.5964 12.4766C82.1576 11.8413 82.6563 11.2296 83.0815 10.659C75.9339 14.0177 69.1207 18.2764 62.8744 23.3115C56.611 28.3289 50.9712 34.1876 46.0512 40.5932C41.1312 47.0047 36.9481 53.981 33.5925 61.2924C30.2596 68.6216 27.7883 76.2978 26.1615 84.0622C25.1186 89.7208 24.3874 95.503 24.2003 101.373C24.393 99.9381 24.5687 98.5087 24.7785 97.0676C25.0449 95.6441 25.3169 94.2089 25.5833 92.7736L24.8862 97.4205L24.3987 102.091C24.274 103.585 24.2116 105.067 24.1096 106.579C24.0756 107.803 24.155 109.032 24.2003 110.261C24.223 110.879 24.2513 111.496 24.2683 112.114L24.2853 112.526C24.3023 114.079 24.3477 115.632 24.427 117.19C24.2456 115.173 24.0133 113.149 23.9793 111.102C23.8942 113.32 24.0303 115.543 24.0756 117.784C24.0756 118.343 24.1266 118.902 24.1663 119.461L24.2967 121.137L24.427 122.82C24.4724 123.378 24.5064 123.943 24.5857 124.502C24.7218 125.62 24.8635 126.737 25.0052 127.855C25.0789 128.414 25.1356 128.978 25.2319 129.531L25.5267 131.202L26.1218 134.537C26.3599 135.637 26.6263 136.737 26.8814 137.837C27.3518 140.043 28.032 142.189 28.6612 144.342C28.9559 145.425 29.3584 146.472 29.7268 147.525C30.1066 148.577 30.4863 149.625 30.8604 150.666C31.2969 151.683 31.7276 152.707 32.1584 153.718C32.5949 154.73 33.0087 155.748 33.5188 156.718C34.4994 158.659 35.429 160.606 36.5456 162.424C38.0137 165.289 39.5951 168.065 41.2842 170.747C41.1255 170.641 40.8308 170.259 40.5077 169.806C39.9636 169 39.323 168.03 39.102 168.171C39.0793 168.141 39.0623 168.112 39.0396 168.089C37.5942 165.718 36.3586 163.23 35.0719 160.801C33.9099 158.271 32.6743 155.789 31.6823 153.201C30.577 150.666 29.7381 148.03 28.8029 145.436C28.0263 142.789 27.1648 140.178 26.5696 137.484C25.8554 134.825 25.402 132.102 24.8805 129.396C24.5064 126.667 24.0586 123.937 23.8829 121.173C23.5938 118.42 23.5711 115.643 23.4975 112.867C23.5258 111.479 23.5598 110.085 23.5881 108.697C23.5995 108.35 23.5995 107.997 23.6165 107.655L23.6902 106.614L23.8602 104.532C23.9622 97.7382 24.7048 90.8737 26.1218 84.074C26.5639 81.4211 27.2328 78.833 27.8279 76.2095C28.5535 73.6391 29.2223 71.0333 30.1009 68.4922C32.1755 62.4336 34.9812 56.3397 38.4728 50.4634C41.9644 44.5872 46.1362 38.9403 50.8635 33.7405C55.5907 28.5348 60.8622 23.7821 66.4794 19.5999C72.1022 15.4235 78.0595 11.8001 84.1528 8.80613C84.3511 8.26498 84.4078 7.81205 84.2491 7.44148C84.0961 7.0709 83.7276 6.7768 83.1098 6.61798C76.2003 9.59434 69.6252 13.453 63.5545 18.0117C57.4782 22.5762 51.9064 27.8466 46.9241 33.6405C36.9424 45.2401 29.3697 58.869 24.2117 73.3861C24.1606 73.6214 24.104 73.8626 24.0529 74.0979C22.7096 80.6094 20.8051 89.015 20.0569 98.0029C19.9662 99.1264 19.8811 100.25 19.7905 101.379C19.7394 101.944 19.7224 102.509 19.6998 103.079L19.6487 104.785C19.6261 105.92 19.5581 107.055 19.5807 108.191C19.6091 109.32 19.6318 110.449 19.6601 111.573C19.6771 112.132 19.6941 112.691 19.7111 113.249C19.7565 113.808 19.8018 114.355 19.8415 114.908C19.9378 116.008 20.0342 117.102 20.1249 118.173C20.2212 119.249 20.414 120.302 20.5613 121.343C20.72 122.384 20.8788 123.402 21.0545 124.396C22.7436 132.343 25.0052 140.06 27.964 147.419C30.8888 154.718 34.5334 161.665 38.9659 167.971C36.1658 164.318 33.7342 160.365 31.4613 156.489C30.9228 155.477 30.4013 154.483 29.8742 153.495C29.3584 152.507 28.8142 151.536 28.3778 150.542C27.9243 149.554 27.4709 148.577 27.0344 147.63C26.819 147.148 26.598 146.678 26.3882 146.207C26.1955 145.725 26.0085 145.254 25.8214 144.789L24.9825 142.531C24.7161 141.772 24.4157 141.025 24.206 140.248C23.7525 138.707 23.3104 137.16 22.8796 135.613C22.5055 134.049 22.1824 132.49 21.8367 130.931C21.7517 130.543 21.661 130.155 21.5873 129.766L21.3946 128.596C21.2642 127.814 21.1338 127.037 21.0035 126.261C20.0285 120.037 19.4617 113.961 18.8495 108.191C18.7135 107.361 18.7248 106.332 18.7248 105.173C18.7362 104.591 18.7475 103.979 18.7702 103.344C18.7985 102.709 18.8042 102.05 18.8835 101.385C19.0082 100.05 19.1386 98.6675 19.2633 97.3029C19.3143 96.6206 19.3993 95.95 19.4844 95.2971C19.5637 94.6383 19.6374 94.003 19.6941 93.3854C19.7111 92.8619 19.7338 92.3266 19.7564 91.7796C19.7678 91.5031 19.7848 91.2266 19.7961 90.9502C19.8245 90.6737 19.8471 90.3973 19.8755 90.1208C19.9888 88.9973 20.1079 87.8503 20.2269 86.6856C19.9435 87.8738 19.6601 89.0679 19.371 90.262C19.0876 91.456 18.8835 92.6678 18.6341 93.8736C18.5718 94.0736 18.6001 93.5677 18.6908 92.5266C18.7418 92.009 18.7928 91.356 18.8835 90.5914C18.9969 89.8326 19.1273 88.962 19.269 88.0091C19.422 87.0562 19.5637 86.0033 19.7621 84.8916C19.9832 83.7916 20.2212 82.6152 20.465 81.4035C20.5953 80.7976 20.7087 80.1741 20.8504 79.5506C21.0034 78.933 21.1622 78.3036 21.3209 77.6742C21.644 76.4095 21.9387 75.1037 22.3015 73.8273C23.061 71.2803 23.7809 68.7098 24.6311 66.3687C24.8295 65.7805 25.0279 65.2041 25.2206 64.6394C25.4133 64.0747 25.5947 63.5159 25.8101 62.9924C26.2182 61.9336 26.5923 60.9395 26.9437 60.0219C27.6012 58.1749 28.2587 56.7161 28.6102 55.7103C28.9729 54.7103 29.092 54.1868 28.8822 54.3045C28.8539 54.2927 28.5818 54.7927 28.1057 55.7279C27.6352 56.6691 26.9267 58.0279 26.1898 59.7984C25.8101 60.6807 25.3906 61.6513 24.9372 62.6983C24.4837 63.7453 24.0813 64.91 23.6108 66.1217C23.1574 67.3393 22.6472 68.6157 22.2278 69.998C21.7913 71.3686 21.3039 72.7861 20.8618 74.2684C19.0933 80.2212 17.6082 87.1033 16.7183 94.1383C15.8171 101.173 15.545 108.355 15.7434 114.855C15.4486 117.396 14.451 116.361 13.4761 114.185C13.3514 113.914 13.2324 113.626 13.1133 113.32C13.0056 113.014 12.9036 112.702 12.8016 112.379C12.5975 111.738 12.4105 111.061 12.2518 110.397C11.94 109.067 11.6793 107.785 11.6679 106.903C11.6169 106.514 11.5772 106.061 11.5376 105.632L11.4355 107.138C11.4072 107.644 11.4072 108.144 11.3845 108.65C11.3619 109.655 11.3335 110.661 11.3165 111.667L11.2882 113.173C11.2882 113.673 11.3052 114.173 11.3165 114.673C11.3392 115.62 11.3619 116.561 11.3902 117.502C10.761 110.514 10.676 103.497 11.1975 96.55C11.1861 98.1205 11.1805 99.6557 11.1975 101.109C11.2655 102.714 11.3902 104.226 11.5262 105.603C11.6169 104.332 11.702 103.067 11.7926 101.797C11.906 100.526 12.0704 99.2675 12.2064 98.0087C12.4501 95.4794 12.9036 92.9854 13.2777 90.4973C13.6065 86.5562 13.9806 83.374 14.451 80.88C14.6721 79.633 14.8478 78.533 15.0632 77.5919C15.2842 76.6566 15.477 75.8684 15.6583 75.2096C15.6697 73.939 15.6584 72.245 15.8851 69.9921C15.732 70.4333 15.5677 70.9039 15.4146 71.3391C13.289 79.2389 11.8607 87.4268 11.2315 95.7324C11.2315 95.6677 11.2315 95.6088 11.2315 95.5382C10.0922 104.585 9.76342 113.949 10.489 123.031C8.38039 107.244 9.24763 91.1855 12.6259 76.0978C12.2291 77.3448 11.9457 78.6506 11.6056 79.9624C11.4412 80.6212 11.2768 81.2799 11.1125 81.9446C11.0331 82.274 10.9481 82.6034 10.8687 82.9446C10.795 83.2799 10.7327 83.6152 10.659 83.9563C10.3926 85.3092 10.1205 86.6798 9.85412 88.0503L9.6614 89.0797L9.50837 90.1208L9.20228 92.2031C8.74882 94.9677 8.5391 97.7676 8.28404 100.509C8.17067 101.879 8.148 103.244 8.08565 104.585C8.0403 105.926 7.97228 107.244 8.01196 108.544C8.0403 109.855 8.06864 111.155 8.10265 112.455L8.13098 113.432L8.19902 114.402C8.25003 115.043 8.2897 115.696 8.33505 116.337C8.38039 116.979 8.42573 117.626 8.47108 118.267C8.52209 118.908 8.55611 119.549 8.64113 120.19C8.79418 121.467 8.94721 122.737 9.09458 124.002C9.17961 124.631 9.24195 125.267 9.33831 125.896L9.65007 127.772C9.85979 129.019 10.0752 130.266 10.2849 131.513C10.523 132.749 10.812 133.978 11.0784 135.196L11.4866 137.031L11.6906 137.943L11.9344 138.843C14.417 148.489 17.9313 157.612 22.3468 166.13C22.8626 167.212 23.4804 168.241 24.0586 169.283C24.6481 170.318 25.2319 171.353 25.8214 172.388C26.4449 173.406 27.0854 174.4 27.7146 175.4L28.6668 176.9L29.143 177.647L29.6531 178.371L31.688 181.259C32.0338 181.729 32.3625 182.223 32.7139 182.688L33.7965 184.076L35.9561 186.835C36.6873 187.747 37.4695 188.611 38.2234 189.494L39.3684 190.811C39.7482 191.252 40.1279 191.694 40.5304 192.105L42.928 194.623L44.1297 195.87L45.3823 197.064L47.8877 199.446C48.7266 200.234 49.6165 200.964 50.4837 201.723C51.3623 202.47 52.2068 203.246 53.1081 203.946L55.8118 206.058L57.1665 207.111L58.5665 208.099L61.4517 209.746C62.3983 210.299 63.3902 210.787 64.3481 211.322L67.2105 212.916C68.1798 213.428 69.1377 213.946 70.0843 214.481C70.6341 214.787 71.1896 215.099 71.7508 215.404C72.3232 215.693 72.8957 215.981 73.4796 216.275C74.6415 216.857 75.8092 217.475 76.9995 218.063C79.4198 219.163 81.8458 220.363 84.3682 221.351C86.8452 222.434 89.4072 223.292 91.8955 224.186C93.1538 224.598 94.4122 224.957 95.6422 225.334C96.26 225.516 96.8722 225.698 97.4787 225.875C98.0965 226.028 98.703 226.175 99.3095 226.322C97.8528 225.369 102.637 226.657 102.693 226.392C103.918 226.551 105.176 226.686 106.44 226.863C107.069 226.957 107.704 227.045 108.35 227.139C108.996 227.21 109.643 227.28 110.3 227.357C111.604 227.498 112.924 227.692 114.262 227.833C115.6 227.957 116.96 228.08 118.326 228.21C118.666 228.239 119.006 228.28 119.352 228.31L120.389 228.363C121.087 228.404 121.778 228.439 122.475 228.48C123.173 228.522 123.875 228.563 124.573 228.604C125.27 228.639 125.978 228.633 126.687 228.645C128.098 228.657 129.521 228.704 130.944 228.675C132.366 228.622 133.789 228.557 135.217 228.504C136.034 228.48 136.442 228.492 136.856 228.557C137.269 228.61 137.694 228.698 138.522 228.727C138.522 228.727 138.522 228.727 138.516 228.727C124.113 230.569 109.756 229.492 96.2147 225.922C89.4468 224.134 82.8604 221.74 76.563 218.746C70.2657 215.751 64.2404 212.181 58.5552 208.087C57.96 207.746 57.3536 207.428 56.7641 207.069C56.1802 206.711 55.5964 206.352 55.0126 205.993C56.7811 207.575 58.6856 208.975 60.5504 210.416L61.2533 210.952L61.9731 211.458L63.4242 212.457C64.3991 213.116 65.3514 213.799 66.3376 214.422C67.3352 215.034 68.3328 215.64 69.3248 216.246L70.8212 217.146L72.3516 217.975C73.3719 218.516 74.3922 219.057 75.4124 219.604C76.4327 220.134 77.487 220.592 78.5243 221.081C82.662 223.034 86.9302 224.545 91.1586 225.845C92.2186 226.169 93.2955 226.422 94.3498 226.698C95.4154 226.963 96.4641 227.257 97.5297 227.463C98.5896 227.663 99.6552 227.869 100.71 228.069C101.237 228.163 101.764 228.263 102.285 228.351C102.812 228.439 103.34 228.492 103.867 228.569C107.177 229.063 112.21 229.151 115.481 229.498C123.263 230.304 130.927 230.116 138.352 229.104C145.783 228.092 152.97 226.269 159.868 223.798C153.225 226.016 146.304 227.663 139.106 228.639C138.919 228.669 138.743 228.686 138.567 228.716C146.18 226.757 154.846 224.551 163.751 221.263C164.856 220.834 165.973 220.393 167.095 219.957C167.651 219.74 168.218 219.522 168.785 219.304C169.34 219.063 169.895 218.81 170.457 218.569C171.573 218.081 172.696 217.593 173.824 217.099C174.935 216.575 176.04 216.016 177.151 215.469L178.817 214.646C179.373 214.369 179.911 214.046 180.461 213.752C181.555 213.152 182.649 212.546 183.743 211.94C184.825 211.31 185.88 210.628 186.951 209.975L188.544 208.981C188.861 208.781 189.173 208.564 189.479 208.352C180.189 214.852 170.338 220.057 159.891 223.798C173.047 219.44 185.024 212.716 195.51 204.252C205.985 195.764 215.026 185.511 222.156 173.712C225.546 168.077 228.38 162.212 230.664 156.224C231.22 154.718 231.815 153.236 232.274 151.707C232.518 150.948 232.761 150.189 233.005 149.43C233.249 148.672 233.498 147.925 233.691 147.154C234.099 145.619 234.507 144.095 234.91 142.566C235.244 141.025 235.567 139.49 235.902 137.954C237.086 131.79 237.755 125.59 237.942 119.42C238.152 113.249 237.783 107.103 236.973 101.056L236.99 101.115ZM29.8005 76.8036C29.8005 76.8036 29.7835 76.8448 29.7778 76.8683C29.8231 76.7095 29.8628 76.5566 29.9082 76.3978C29.8685 76.5331 29.8345 76.6683 29.7948 76.8036H29.8005ZM11.9344 122.449L12.2404 124.814C12.3311 125.602 12.4955 126.378 12.6259 127.167C12.9093 128.731 13.153 130.308 13.4761 131.86C13.8219 133.407 14.1733 134.96 14.519 136.507C14.6494 137.131 14.8195 137.748 14.9952 138.366L15.5053 140.213L16.0211 142.06C16.1912 142.678 16.3555 143.295 16.5653 143.895C16.962 145.107 17.3645 146.319 17.7613 147.536C17.971 148.142 18.158 148.754 18.3791 149.354L19.0649 151.142C19.5241 152.33 19.9832 153.524 20.4423 154.718C20.9411 155.895 21.4626 157.06 21.9784 158.23C22.959 160.589 24.172 162.842 25.3056 165.13C24.6311 163.942 23.9622 162.748 23.2934 161.548L22.7889 160.648C22.6246 160.348 22.4772 160.036 22.3185 159.736L21.3832 157.901C21.0715 157.324 20.7597 156.73 20.448 156.124C20.2949 155.818 20.1362 155.518 19.9832 155.213C19.8301 154.907 19.6998 154.589 19.5581 154.277C19.0026 153.013 18.4414 151.713 17.8916 150.383C17.7556 150.048 17.6195 149.713 17.4778 149.377C17.3588 149.03 17.2341 148.689 17.1151 148.342C16.8827 147.642 16.6389 146.948 16.3952 146.236C15.3863 143.419 14.6607 140.407 13.8899 137.331C12.5408 131.225 11.7133 124.69 11.4355 118.008C11.5432 119.496 11.753 120.978 11.94 122.461L11.9344 122.449ZM24.2967 166.836C23.5938 165.647 22.9193 164.43 22.2221 163.218C19.184 158.048 16.4462 151.901 14.485 145.066C12.4785 138.248 11.1125 130.784 10.506 123.096C12.7052 139.678 18.1297 155.86 26.5016 170.353C25.7647 169.177 25.0335 168.006 24.2967 166.836ZM99.7629 217.722C98.5159 217.457 97.2746 217.199 96.0389 216.934C95.4211 216.799 94.792 216.693 94.1855 216.522L92.3546 216.046L90.5181 215.569L89.5999 215.328L88.693 215.046C87.4743 214.657 86.2556 214.263 85.02 213.869C83.79 213.446 82.577 212.952 81.33 212.475C80.7121 212.228 80.0773 212.005 79.4595 211.722C78.8417 211.44 78.2182 211.158 77.5947 210.869C73.4682 209.134 69.4041 206.84 65.3457 204.287C63.3732 202.934 61.3269 201.617 59.4054 200.076C58.9236 199.699 58.4305 199.323 57.9431 198.946C57.4556 198.57 56.9624 198.199 56.4976 197.782C55.5567 196.97 54.6101 196.152 53.6635 195.335C49.9566 191.964 46.3459 188.352 43.1037 184.37L41.8624 182.894C41.4543 182.4 41.0802 181.876 40.6834 181.37L38.3538 178.294C37.6226 177.235 36.897 176.171 36.1715 175.112C35.8144 174.577 35.446 174.053 35.0889 173.512L34.08 171.865C33.0767 170.359 32.0281 168.883 31.1268 167.347C29.1146 164.024 27.7599 160.912 26.5866 157.877C26.3939 157.424 26.1955 156.971 26.0028 156.524C26.1275 156.771 26.2579 157.036 26.3826 157.289C25.9801 156.136 25.5947 154.989 25.2149 153.836L24.9315 152.966C24.8465 152.671 24.7671 152.377 24.6821 152.077C24.5177 151.483 24.3534 150.889 24.189 150.283C24.0189 149.683 23.8489 149.072 23.6732 148.448C23.4975 147.83 23.3161 147.201 23.1744 146.548C22.8626 145.248 22.5339 143.913 22.1711 142.507C21.933 142.007 21.7006 141.507 21.4966 140.99L22.2504 140.784C24.9655 147.683 27.7713 155.277 31.4102 162.753C35.0549 170.2 39.5441 177.488 44.8665 183.506C46.5557 185.488 48.4148 187.341 50.24 189.247C51.1809 190.17 52.1501 191.064 53.1024 191.976C53.5842 192.429 54.0547 192.894 54.5478 193.329L56.0499 194.623L57.5576 195.923L58.3115 196.57L59.088 197.187C60.131 198.005 61.1796 198.823 62.2225 199.64C63.2825 200.434 64.3764 201.181 65.4591 201.952C66.0032 202.328 66.5303 202.728 67.0915 203.081L68.7693 204.14L70.4414 205.199C70.7248 205.375 70.9969 205.552 71.2803 205.722L72.1419 206.211C73.2868 206.852 74.4375 207.493 75.5825 208.134C77.9348 209.299 80.2474 210.511 82.6563 211.469C85.02 212.528 87.463 213.346 89.8663 214.187C91.085 214.557 92.3036 214.904 93.5166 215.252C94.1288 215.416 94.7183 215.616 95.3361 215.746C95.9483 215.881 96.5604 216.016 97.1669 216.157C97.9094 216.334 98.737 216.563 99.6043 216.828C100.483 217.069 101.395 217.322 102.319 217.581C103.238 217.84 104.15 218.128 105.023 218.357C105.902 218.569 106.735 218.769 107.483 218.928C104.819 218.616 102.285 218.122 99.7573 217.71L99.7629 217.722ZM199.364 200.929C198.883 201.346 198.395 201.764 197.908 202.187C197.415 202.599 196.893 202.987 196.389 203.387C195.368 204.175 194.337 204.97 193.311 205.764C192.291 206.475 191.259 207.187 190.233 207.905C191.225 207.187 192.217 206.475 193.214 205.758C194.218 204.97 195.227 204.181 196.241 203.387C196.751 202.993 197.256 202.599 197.766 202.199C198.259 201.781 198.747 201.364 199.245 200.94C200.226 200.087 201.246 199.27 202.227 198.405C201.309 199.276 200.328 200.093 199.364 200.934V200.929ZM225.325 160.259C225.245 160.606 225.155 160.971 225.053 161.359C224.956 161.748 224.837 162.159 224.69 162.577C224.406 163.424 224.078 164.342 223.709 165.324C223.517 165.818 223.324 166.324 223.125 166.847C222.916 167.365 222.672 167.877 222.428 168.412C221.941 169.477 221.419 170.588 220.87 171.735C218.551 176.241 215.558 181.088 212.407 185.247C209.233 189.382 206.036 192.935 203.684 195.146C197.828 200.658 190.998 206.093 183.556 210.822C176.096 215.516 168.042 219.463 160.078 222.487C158.531 222.163 158.576 221.534 159.806 220.687C160.424 220.263 161.336 219.781 162.498 219.251C163.649 218.681 165.043 218.016 166.653 217.31C167.056 217.134 167.475 216.951 167.9 216.769C168.32 216.569 168.75 216.357 169.193 216.146C170.083 215.728 171.012 215.287 171.987 214.828C172.968 214.399 173.954 213.84 174.986 213.316C176.011 212.781 177.088 212.258 178.171 211.658C182.49 209.264 187.144 206.358 191.741 202.975C196.304 199.552 200.764 195.611 204.789 191.417C205.775 190.347 206.784 189.311 207.725 188.229C208.643 187.129 209.556 186.035 210.457 184.964C211.341 183.882 212.146 182.747 212.962 181.659C213.365 181.106 213.784 180.576 214.153 180.023C214.521 179.47 214.89 178.918 215.252 178.371C215.609 177.823 215.967 177.282 216.312 176.747C216.664 176.212 217.009 175.688 217.31 175.141C217.933 174.059 218.534 173.012 219.101 171.988C219.243 171.735 219.384 171.483 219.52 171.23C219.651 170.971 219.776 170.718 219.9 170.465C220.144 169.953 220.388 169.453 220.62 168.965C221.085 167.989 221.533 167.047 221.918 166.142C222.644 164.295 223.25 162.624 223.687 161.153C224.078 159.659 224.321 158.371 224.406 157.342C225.767 156.254 225.948 157.507 225.325 160.271V160.259Z" fill="white"/>
<path d="M51.8927 171.021C63.7411 182.451 54.1502 204.159 39.3346 202.408C29.2465 201.22 22.1375 189.115 27.7132 176.517C33.4161 163.654 46.0108 165.351 51.8927 171.021Z" fill="#FCECDE"/>
<path d="M32.7123 180.565C32.3431 180.628 31.9564 180.59 31.583 180.428C30.5918 179.99 30.1477 178.813 30.598 177.814C32.592 173.33 35.53 170.72 39.3734 170.059C43.7539 169.306 47.6951 171.326 49.7291 173.307C50.515 174.06 50.5395 175.308 49.7939 176.097C49.0484 176.887 47.808 176.909 47.0221 176.156C45.591 174.767 42.7801 173.493 40.0444 173.963C37.5437 174.393 35.6226 176.185 34.1783 179.443C33.9049 180.064 33.3362 180.475 32.7152 180.581L32.7123 180.565Z" fill="white"/>
<path d="M70.9192 35.577C56.0347 22.3613 32.1398 28.7793 45.1087 44.8642C49.9994 50.9176 59.4256 53.7852 65.7997 53.6826C75.2596 53.5461 80.2096 43.8342 70.9007 35.5802L70.9192 35.577Z" fill="#FCECDE"/>
<path d="M67.5743 41.9379C66.948 42.0455 66.2923 41.8718 65.7793 41.4252C60.856 37.058 54.7745 35.7735 50.9242 36.4353C50.1136 36.5746 49.5769 36.7624 49.246 36.9338C49.4617 37.5269 49.9782 38.5458 51.1087 39.9365C51.8551 40.8586 51.7099 42.2203 50.7987 42.9881C49.8843 43.7373 48.5341 43.6065 47.766 42.6691C45.3779 39.6994 44.3654 37.0088 44.9971 35.277C45.5565 33.7868 47.4828 32.6345 50.1724 32.1722C55.0359 31.3362 62.6036 32.8809 68.5993 38.1905C69.4924 38.9728 69.5778 40.3522 68.8027 41.2493C68.47 41.6311 68.0165 41.8619 67.5559 41.941L67.5743 41.9379Z" fill="white"/>
<path d="M236.93 149.634C236.709 147.823 235.127 146.266 233.319 146.082C231.512 145.897 229.659 147.085 229.073 148.812C228.295 151.118 230.083 153.933 232.495 154.185C234.906 154.437 237.227 152.058 236.92 149.635L236.93 149.634Z" fill="#FCECDE"/>
<path d="M244.589 161.623C244.3 158.773 241.472 156.45 238.64 156.725C235.797 157.001 233.478 159.855 233.758 162.706C234.039 165.568 236.889 167.907 239.72 167.622C242.561 167.336 244.88 164.482 244.579 161.624L244.589 161.623Z" fill="#FCECDE"/>
</svg>
